<?xml version="1.0" encoding="UTF-8" standalone="no"?>
<!-- Created with Inkscape (http://www.inkscape.org/) -->

<svg
   width="1670.906"
   height="2048.042"
   viewBox="0 0 442.09387 541.87777"
   version="1.1"
   id="svg1"
   xml:space="preserve"
   inkscape:version="1.3.2 (091e20e, 2023-11-25, custom)"
   sodipodi:docname="logo.svg"
   inkscape:export-filename="logo.png"
   inkscape:export-xdpi="175.14882"
   inkscape:export-ydpi="175.14882"
   xmlns:inkscape="http://www.inkscape.org/namespaces/inkscape"
   xmlns:sodipodi="http://sodipodi.sourceforge.net/DTD/sodipodi-0.dtd"
   xmlns="http://www.w3.org/2000/svg"
   xmlns:svg="http://www.w3.org/2000/svg"><sodipodi:namedview
     id="namedview1"
     pagecolor="#505050"
     bordercolor="#eeeeee"
     borderopacity="1"
     inkscape:showpageshadow="0"
     inkscape:pageopacity="0"
     inkscape:pagecheckerboard="0"
     inkscape:deskcolor="#505050"
     inkscape:document-units="mm"
     inkscape:zoom="0.22672208"
     inkscape:cx="897.57468"
     inkscape:cy="1029.8953"
     inkscape:window-width="1366"
     inkscape:window-height="705"
     inkscape:window-x="-8"
     inkscape:window-y="-8"
     inkscape:window-maximized="1"
     inkscape:current-layer="g1" /><defs
     id="defs1" /><g
     inkscape:label="Layer 1"
     inkscape:groupmode="layer"
     id="layer1"><g
       id="g1"
       transform="translate(-256.82345,38.275094)"><path
         style="fill:#c967b6"
         d="m 365.03801,326.17517 c -0.65485,-0.0535 -2.8575,-0.22594 -4.89479,-0.38319 -8.79325,-0.67872 -17.13199,-2.22631 -23.52823,-4.36663 -6.60037,-2.20862 -19.42626,-8.70869 -29.12386,-14.75976 -51.51176,-32.14212 -60.98165,-77.43584 -27.69631,-132.46918 5.52862,-9.14092 12.71792,-19.14029 20.46113,-28.45873 6.82835,-8.21748 11.64794,-13.43926 21.23664,-23.00887 6.57755,-6.56446 10.1937,-9.96976 17.11091,-16.11318 4.11136,-3.65144 11.17821,-9.408624 11.3456,-9.24296 0.0685,0.06784 0.009,0.206172 -0.1323,0.3074 -0.1413,0.101229 -0.297,0.41463 -0.346,0.696448 -0.17591,1.011838 -4.25429,9.776122 -10.10374,21.712602 -3.97282,8.10698 -6.63321,13.60837 -8.06075,16.66875 -0.47516,1.01865 -1.39773,2.98318 -2.05015,4.36562 -2.29575,4.86459 -5.92185,13.37793 -7.8886,18.52084 -4.66669,12.20299 -7.30279,21.91198 -8.62052,31.75 -0.66803,4.98747 -0.67498,14.5626 -0.0136,18.78541 1.79343,11.45145 6.32655,20.50866 14.27688,28.5253 12.29807,12.40065 30.73541,20.79368 58.52365,26.64111 25.37373,5.33934 49.68352,7.61797 74.60308,6.99276 4.7919,-0.12022 9.61393,-0.28606 10.71563,-0.36853 10.07329,-0.75406 15.34501,-1.26557 21.97912,-2.1326 4.01857,-0.52521 4.81697,-0.65202 15.74271,-2.50054 5.82203,-0.98502 21.9316,-4.77669 28.83958,-6.7879 15.19083,-4.4227 32.25783,-10.69238 44.13493,-16.21326 1.28192,-0.59588 2.39551,-1.08342 2.47464,-1.08342 0.18852,0 17.60401,-8.71468 17.94876,-8.98152 0.14552,-0.11264 1.21709,-0.71349 2.38125,-1.33523 10.48473,-5.59952 23.02968,-13.4379 34.66042,-21.65666 21.13649,-14.93592 42.66275,-34.48765 57.65341,-52.36506 1.41678,-1.6896 1.90438,-2.11326 2.17435,-1.8892 0.38778,0.32183 -0.48869,1.49283 -8.10172,10.82433 -7.02371,8.60915 -20.712,24.48643 -24.87083,28.84809 -0.21828,0.22892 -1.70657,1.83606 -3.30729,3.57142 -5.95225,6.45286 -7.87522,8.43244 -18.36885,18.90967 -14.38395,14.36148 -22.75269,21.96473 -36.13532,32.83001 -6.5852,5.34648 -16.19891,12.34596 -23.28333,16.95196 -4.93218,3.2067 -7.24976,4.57374 -15.34584,9.05187 -2.98492,1.65103 -13.84007,6.8731 -18.78541,9.03707 -8.00197,3.50149 -17.55273,7.32322 -24.47396,9.79324 -9.32884,3.32925 -20.56413,7.06492 -25.4,8.44536 -0.65485,0.18693 -2.79797,0.82268 -4.7625,1.41278 -8.51314,2.55714 -24.11758,6.60321 -33.86667,8.78129 -24.06769,5.37705 -45.22396,8.59969 -67.86562,10.33768 -3.56052,0.27331 -26.78575,0.55564 -29.23646,0.35541 z"
         id="path4"
         sodipodi:nodetypes="sssssssscssssssscsssssssssssssssssssssssssssss" /><path
         style="fill:#6eab45"
         d="m 585.17307,230.22154 c 9.5e-4,-1.92815 0.12054,-13.74511 0.26576,-26.2599 0.47385,-40.83674 1.05325,-95.68862 1.05435,-99.81658 l 10e-4,-4.03742 -8.53282,-5.639143 c -4.69304,-3.10153 -10.79402,-7.118754 -13.55773,-8.927163 -2.76371,-1.80841 -8.62699,-5.669268 -13.02951,-8.579685 -4.40253,-2.910416 -10.89241,-7.191312 -14.42196,-9.513101 -3.52954,-2.321789 -9.69158,-6.381077 -13.6934,-9.020639 -7.56288,-4.988399 -15.87835,-10.465612 -23.8125,-15.684759 -2.54661,-1.675183 -8.6188,-5.679895 -13.49375,-8.89936 -4.87495,-3.219465 -11.30383,-7.455625 -14.2864,-9.413689 -2.98257,-1.958063 -9.02562,-5.941365 -13.42899,-8.851782 -4.40338,-2.910416 -10.29747,-6.799068 -13.09798,-8.6414482 -15.7588,-10.3672875 -19.39516,-12.7865285 -19.54423,-13.0026198 -0.0907,-0.1314633 -0.11986,-2.5781404 -0.0648,-5.43706 0.055,-2.85892 0.17303,-10.052242 0.26219,-15.985161 l 0.16211,-10.787124 1.6225,0.894485 c 0.89237,0.491967 2.75359,1.492982 4.13604,2.224477 1.38245,0.731496 5.37104,2.847524 8.86354,4.702286 3.4925,1.854762 9.36913,4.969188 13.05918,6.920947 3.69005,1.95176 9.46458,5.013731 12.83229,6.804381 3.36771,1.79065 7.31374,3.884805 8.76895,4.653678 1.4552,0.768873 4.25317,2.2561683 6.2177,3.3051011 4.89014,2.6110171 12.02314,6.3965677 15.21355,8.07396605 1.4552,0.76509628 3.47927,1.83858375 4.49791,2.38552755 1.01865,0.5469439 2.86412,1.5276106 4.10104,2.1792592 1.23693,0.6516487 3.20146,1.6914488 4.36563,2.310667 1.16417,0.6192182 3.36682,1.7852225 4.89479,2.5911207 3.0042,1.5845084 5.16763,2.7381314 8.06979,4.3031194 1.78931,0.964883 23.35069,12.395616 32.54375,17.253021 2.47386,1.307128 5.33136,2.824791 6.35,3.372584 1.01865,0.547793 7.86474,4.179394 15.21354,8.070223 7.34881,3.89083 15.20693,8.055935 17.4625,9.255789 2.25558,1.199854 5.17261,2.75052 6.4823,3.445925 1.30968,0.695405 3.7876,2.021822 5.50649,2.947593 1.71888,0.925771 3.18639,1.683219 3.26113,1.683219 0.0747,0 0.93056,0.457963 1.90184,1.017695 0.97127,0.559733 3.3733,1.8556 5.33783,2.879706 1.96453,1.024106 6.36984,3.34778 9.78958,5.16372 3.41974,1.81594 11.09927,5.893923 17.06563,9.062184 5.96635,3.16826 13.70541,7.272264 17.19791,9.120008 18.03616,9.54222 22.09271,11.761754 22.09271,12.087989 0,0.21619 -0.33799,0.373985 -0.8599,0.401453 -0.47294,0.02489 -1.03849,0.07177 -1.25677,0.104167 -0.21828,0.0324 -7.2132,0.07157 -15.54427,0.08704 l -15.14739,0.02813 V 143.634 188.21326 l -1.65365,1.17963 c -0.9095,0.6488 -2.12989,1.52503 -2.71198,1.94718 -0.58208,0.42215 -5.34458,3.77971 -10.58333,7.46125 -5.23875,3.68153 -10.77516,7.57829 -12.30313,8.65946 -4.54746,3.21773 -22.53622,15.9017 -23.6802,16.69705 -0.58209,0.40469 -3.88615,2.72346 -7.34237,5.15281 -3.45622,2.42936 -6.34348,4.41702 -6.41614,4.41702 -0.0727,0 -0.13134,-1.57758 -0.13039,-3.50573 z"
         id="path3"
         sodipodi:nodetypes="ssccssssssssssscscssssssssssssssssssssssssssssscccsssssssss" /><path
         style="fill:#575757"
         d="m 467.69634,189.80683 v -23.54792 h 22.88646 22.88646 v 23.54792 23.54791 H 490.5828 467.69634 Z m -68.52708,-0.26459 v -23.54791 h 22.75416 22.75417 v 23.54791 23.54792 h -22.75417 -22.75416 z m 69.85,-66.93958 V 99.054747 h 22.75416 22.75417 v 23.547913 23.54792 h -22.75417 -22.75416 z m -68.79167,-0.26458 V 98.790163 h 22.88646 22.88646 v 23.547917 23.54791 h -22.88646 -22.88646 z"
         id="path2"
         sodipodi:nodetypes="cccccccccccccccccccccccccccccccccccc" /><path
         style="fill:#1f2022"
         d="m 475.69529,461.07087 0.0708,-42.53177 0.58791,-1.43646 c 0.71467,-1.7462 2.17924,-3.306 3.77772,-4.02337 3.02916,-1.35943 2.89178,-1.3532 32.54375,-1.47761 34.28033,-0.14384 38.20821,0.0387 43.66087,2.02864 6.11392,2.2313 10.3046,7.14553 12.3577,14.49133 0.71044,2.54189 0.72327,2.72116 0.7157,9.99664 -0.0114,10.96237 -0.64275,14.49506 -3.64006,20.36796 -1.45326,2.84748 -2.94226,4.74769 -3.54043,4.51815 -0.20282,-0.0778 -0.30502,-0.0384 -0.22712,0.0877 0.0779,0.12606 -0.66005,1.00958 -1.6399,1.96338 -4.87961,4.74987 -6.90243,5.66763 -16.20135,7.3506 -2.54661,0.4609 -4.66776,0.87006 -4.71366,0.90926 -0.0459,0.0392 0.54474,0.64886 1.31252,1.35482 0.76778,0.70596 3.00799,2.77346 4.97824,4.59444 1.97026,1.82098 4.35619,4.01647 5.30207,4.87888 0.94589,0.8624 1.6801,1.69422 1.6316,1.8485 -0.0485,0.15427 -0.004,0.19586 0.0999,0.0924 0.10344,-0.10344 1.15745,0.67046 2.34225,1.71979 1.1848,1.04932 2.68767,2.35124 3.33971,2.89315 5.12709,4.26111 12.92422,10.75372 13.35636,11.12173 0.29104,0.24785 0.76729,0.62771 1.05834,0.84412 0.47683,0.35457 0.1475,0.39432 -3.33021,0.4019 -2.12266,0.005 -7.95672,0.0807 -12.96458,0.16902 l -9.10521,0.16061 -1.45521,-1.36302 c -2.54974,-2.38821 -8.94135,-8.00714 -15.11299,-13.28598 -3.29167,-2.8155 -8.51811,-7.32174 -11.61431,-10.01388 l -5.62945,-4.89479 -6.24506,-0.13229 -6.24507,-0.13229 -0.081,-8.43639 -0.0809,-8.43639 4.18199,0.16552 c 10.25225,0.40579 25.73785,0.50581 29.47938,0.1904 10.41015,-0.87757 14.56432,-2.80891 16.77016,-7.79671 0.93238,-2.10828 1.15174,-3.95565 1.35422,-11.40518 0.15527,-5.71233 0.12059,-6.81787 -0.25424,-8.10486 l -0.43403,-1.49028 -10.78341,-0.19961 c -5.93088,-0.10979 -19.11779,-0.13446 -29.30425,-0.0548 l -18.52083,0.1448 -0.0882,4.19093 c -0.0801,3.80535 0.21933,31.39774 0.65197,60.08415 l 0.16859,11.17864 h -9.30058 -9.30058 z m 147.29341,40.67337 c -6.48182,-0.1931 -12.31572,-0.67322 -16.25382,-1.33766 -4.44577,-0.75009 -9.50912,-2.78391 -11.17645,-4.4893 -1.57793,-1.61394 -1.76527,-2.32934 -1.85012,-7.06516 -0.0424,-2.36471 -0.0291,-4.29948 0.0294,-4.29948 0.0585,0 1.06765,0.47469 2.24254,1.05487 4.26836,2.10776 9.97353,3.3433 19.07957,4.13196 3.94082,0.3413 7.31691,0.39834 17.4625,0.29502 12.91094,-0.13148 15.42417,-0.30973 19.66104,-1.39444 5.41592,-1.38657 9.14807,-4.78763 10.40053,-9.47787 0.99142,-3.71269 0.66603,-8.6592 -0.75932,-11.54287 -1.38451,-2.80104 -3.65636,-4.11403 -8.46906,-4.89459 -1.93408,-0.31368 -5.26625,-0.39542 -16.1935,-0.39724 -18.56806,-0.003 -24.04338,-0.37634 -29.75578,-2.02841 -3.45597,-0.9995 -5.64941,-2.27685 -8.10912,-4.72236 -3.29944,-3.2804 -4.56164,-6.29147 -5.18306,-12.36456 -0.56041,-5.47679 0.28707,-12.06371 2.0793,-16.16102 1.87329,-4.28262 6.00663,-8.40133 10.26151,-10.22518 6.54812,-2.80685 12.63289,-3.79973 25.81235,-4.2119 16.77164,-0.52451 35.21881,0.61735 40.54035,2.50941 0.62234,0.22127 1.93781,0.57321 2.92327,0.78208 3.03105,0.64245 5.23855,2.0991 6.35889,4.19601 0.51161,0.95757 0.5943,1.6123 0.71202,5.63752 l 0.13318,4.55413 -0.92604,-0.88696 c -1.18763,-1.1375 -2.21969,-1.64839 -4.86855,-2.41002 -7.10774,-2.04371 -21.79212,-3.20619 -37.2002,-2.94493 -13.5941,0.23051 -18.43291,1.29021 -22.05956,4.83104 -2.43436,2.37676 -3.34276,5.02031 -3.3373,9.71198 0.007,6.42901 2.16096,9.31523 7.94659,10.65047 1.71977,0.3969 4.40995,0.48004 21.02215,0.64973 20.43905,0.20877 21.62465,0.28336 27.27184,1.71589 3.75029,0.95134 5.71495,2.01464 8.12019,4.39474 1.67401,1.65651 2.25493,2.46067 3.13646,4.34182 1.74077,3.7147 2.19588,6.38801 2.20649,12.96089 0.009,5.2712 -0.0298,5.70557 -0.74676,8.46667 -1.29622,4.99189 -3.05785,8.1111 -6.24995,11.06642 -4.7189,4.36888 -10.49189,6.63622 -20.31415,7.97839 -6.37928,0.87171 -21.71131,1.28943 -33.94739,0.92491 z m -249.68246,-0.72106 -6.41615,-0.0758 v -40.71326 c 0,-39.83394 0.0113,-40.7499 0.52408,-42.41001 0.55112,-1.78432 1.12532,-2.49132 2.65092,-3.26404 2.34713,-1.18882 2.83213,-1.22486 20.24063,-1.504 17.3249,-0.2778 44.17887,0.0587 47.75729,0.59838 9.45602,1.42619 15.00195,5.75395 16.93986,13.21901 1.22184,4.70668 1.26215,10.87487 0.10201,15.61042 -1.32544,5.41025 -4.92544,9.71002 -9.55076,11.40724 -1.89572,0.69562 -2.29964,1.02665 -1.26017,1.03277 1.52461,0.009 4.4961,0.79884 6.32918,1.68239 6.0119,2.89777 8.65601,8.83746 8.67155,19.47968 0.0147,10.08876 -2.52915,16.14812 -8.43889,20.10079 -4.19525,2.80596 -9.4888,4.19066 -18.21674,4.76519 -3.53402,0.23263 -41.77924,0.27854 -59.33281,0.0712 z m 53.68119,-10.79297 c 6.05298,-1.11602 8.64744,-2.70948 10.55082,-6.48005 1.19701,-2.37127 1.57474,-4.40004 1.57918,-8.48176 0.004,-3.73188 -0.48885,-6.58168 -1.46483,-8.46901 -0.78416,-1.5164 -2.70115,-3.31293 -4.2901,-4.0205 -3.50428,-1.5605 -3.86066,-1.58682 -23.7422,-1.75345 -13.70326,-0.11485 -18.3976,-0.234 -18.82302,-0.47777 -1.71367,-0.98194 -2.33771,-2.82683 -2.55266,-7.54659 l -0.0934,-2.05052 16.29078,-2.2e-4 c 16.95654,-2.3e-4 20.77198,-0.17325 23.68898,-1.07422 3.11074,-0.96081 5.60435,-3.52585 6.7316,-6.92443 1.17319,-3.53709 1.24796,-9.23796 0.16802,-12.81041 -0.56119,-1.85642 -2.33572,-4.43586 -3.69507,-5.37111 -1.51382,-1.04154 -3.99446,-1.84139 -6.74078,-2.17348 -3.52682,-0.42648 -33.51382,-0.4408 -34.70842,-0.0166 -1.10078,0.3909 -2.20408,1.45956 -2.6065,2.52465 -0.19324,0.51146 -0.28142,10.89441 -0.28142,33.13906 v 32.39423 h 18.88848 c 15.88254,0 19.24051,-0.0649 21.10053,-0.40785 z m -170.1593,-27.4364 c 0.003,-20.99311 0.11171,-39.1858 0.24251,-40.4282 0.55896,-5.30948 2.1333,-7.3544 6.64782,-8.63488 1.60197,-0.45437 3.39794,-0.48329 30.01434,-0.48329 30.30082,0 31.55639,0.046 36.35668,1.33059 5.88269,1.57432 10.51602,4.5435 13.15169,8.42804 1.37779,2.03063 3.05882,6.00983 3.62453,8.57967 0.4833,2.19548 0.56319,3.39998 0.55614,8.38461 -0.008,5.34471 -0.0653,6.06411 -0.70599,8.79493 -1.31067,5.58668 -3.34926,9.51878 -6.61147,12.75238 -3.03505,3.00843 -6.24355,4.74369 -11.17664,6.04471 l -2.65119,0.6992 -24.1657,0.0863 -24.1657,0.0862 0.0886,-4.45481 c 0.075,-3.77158 0.16278,-4.56788 0.57221,-5.19198 0.98441,-1.50054 0.80955,-1.48671 18.79921,-1.48671 18.1881,0 19.22659,-0.0737 22.25678,-1.57873 3.48326,-1.7301 5.90743,-5.22585 6.88652,-9.93064 0.53978,-2.59378 0.6256,-8.55753 0.15802,-10.98021 -0.80931,-4.19327 -3.4474,-7.82523 -6.51849,-8.97427 -3.62393,-1.35589 -11.89381,-1.77948 -28.04272,-1.43636 -11.51204,0.24459 -11.94335,0.27231 -13.02686,0.83728 -2.09625,1.09305 -1.91449,-2.4444 -1.98825,38.69723 l -0.0661,36.88966 -10.12031,0.0693 -10.12031,0.0693 z"
         id="path1" /></g></g></svg>
