<?xml version="1.0" encoding="UTF-8" standalone="no"?>
<!-- Created with Inkscape (http://www.inkscape.org/) -->

<svg
   width="1670.906"
   height="2048.042"
   viewBox="0 0 442.09387 541.87777"
   version="1.1"
   id="svg1"
   xml:space="preserve"
   inkscape:version="1.3.2 (091e20e, 2023-11-25, custom)"
   sodipodi:docname="logo.svg"
   xmlns:inkscape="http://www.inkscape.org/namespaces/inkscape"
   xmlns:sodipodi="http://sodipodi.sourceforge.net/DTD/sodipodi-0.dtd"
   xmlns="http://www.w3.org/2000/svg"
   xmlns:svg="http://www.w3.org/2000/svg"><sodipodi:namedview
     id="namedview1"
     pagecolor="#505050"
     bordercolor="#eeeeee"
     borderopacity="1"
     inkscape:showpageshadow="0"
     inkscape:pageopacity="0"
     inkscape:pagecheckerboard="0"
     inkscape:deskcolor="#505050"
     inkscape:document-units="mm"
     inkscape:zoom="0.16031672"
     inkscape:cx="358.66502"
     inkscape:cy="863.91487"
     inkscape:window-width="1366"
     inkscape:window-height="705"
     inkscape:window-x="-8"
     inkscape:window-y="-8"
     inkscape:window-maximized="1"
     inkscape:current-layer="layer1" /><defs
     id="defs1" /><g
     inkscape:label="Layer 1"
     inkscape:groupmode="layer"
     id="layer1"><g
       id="g1"
       transform="translate(-256.82345,38.275094)"><path
         style="fill:#c967b6"
         d="m 550.05589,503.40784 c 0.69561,-0.0547 1.76717,-0.054 2.38125,10e-4 0.61407,0.0555 0.0449,0.10023 -1.26476,0.0994 -1.30969,-8.1e-4 -1.81211,-0.0462 -1.11649,-0.10089 z m -4.72948,-1.72343 -0.50403,-0.59531 0.59531,0.50403 c 0.32743,0.27721 0.59532,0.5451 0.59532,0.59531 0,0.21173 -0.21294,0.0554 -0.6866,-0.50403 z m 76.15899,0.14122 c 0.40019,-0.0606 1.05503,-0.0606 1.45521,0 0.40018,0.0606 0.0728,0.11023 -0.7276,0.11023 -0.80037,0 -1.12779,-0.0496 -0.72761,-0.11023 z m 22.22864,-3.5e-4 c 0.40218,-0.0608 0.9975,-0.0592 1.32292,0.004 0.32542,0.0628 -0.004,0.11256 -0.73124,0.11058 -0.72761,-0.002 -0.99386,-0.0534 -0.59168,-0.11419 z m -27.5203,-0.25711 c 0.25466,-0.0666 0.67138,-0.0666 0.92604,0 0.25466,0.0666 0.0463,0.121 -0.46302,0.121 -0.50933,0 -0.71769,-0.0544 -0.46302,-0.121 z m 33.46979,0.007 c 0.1819,-0.0734 0.47955,-0.0734 0.66146,0 0.1819,0.0734 0.0331,0.13345 -0.33073,0.13345 -0.36381,0 -0.51263,-0.06 -0.33073,-0.13345 z m -264.17546,-0.28581 c 0.98832,-0.051 2.53613,-0.0507 3.43959,8.4e-4 0.90345,0.0515 0.0948,0.0933 -1.79694,0.0928 -1.89177,-4.6e-4 -2.63096,-0.0426 -1.64265,-0.0937 z m 39.27963,0.005 c 0.47294,-0.0587 1.24684,-0.0587 1.71979,0 0.47294,0.0587 0.086,0.10671 -0.8599,0.10671 -0.94588,0 -1.33284,-0.048 -0.85989,-0.10671 z m 228.61653,0.0106 c 0.191,-0.0764 0.4192,-0.067 0.50712,0.0209 0.0879,0.0879 -0.0684,0.15046 -0.34727,0.13897 -0.30822,-0.0127 -0.37092,-0.0754 -0.15985,-0.15986 z m -284.83685,-0.2737 c 0.40218,-0.0608 0.99749,-0.0592 1.32291,0.004 0.32542,0.0628 -0.004,0.11256 -0.73124,0.11058 -0.7276,-0.002 -0.99386,-0.0534 -0.59167,-0.11419 z m 63.76598,0.007 c 0.25743,-0.0671 0.61461,-0.0627 0.79375,0.01 0.17913,0.0725 -0.0315,0.12736 -0.46806,0.12197 -0.43656,-0.005 -0.58313,-0.0647 -0.32569,-0.13177 z m 178.20837,0.003 c 0.191,-0.0764 0.4192,-0.067 0.50712,0.0209 0.0879,0.0879 -0.0684,0.15045 -0.34727,0.13896 -0.30822,-0.0127 -0.37092,-0.0754 -0.15985,-0.15985 z m -174.36041,-0.26458 c 0.19099,-0.0764 0.41919,-0.067 0.50711,0.0209 0.0879,0.0879 -0.0684,0.15045 -0.34726,0.13896 -0.30823,-0.0127 -0.37092,-0.0754 -0.15985,-0.15985 z m 133.89502,-0.54687 c -0.32911,-0.41964 -0.31975,-0.429 0.0999,-0.0999 0.44073,0.34564 0.58088,0.56292 0.36312,0.56292 -0.0549,0 -0.2633,-0.20836 -0.46302,-0.46303 z m -28.03211,-1.5875 -0.64143,-0.7276 0.7276,0.64143 c 0.68006,0.59952 0.84894,0.81378 0.64144,0.81378 -0.0474,0 -0.37482,-0.32742 -0.72761,-0.72761 z m -2.65956,-2.38125 c -0.3291,-0.41964 -0.31974,-0.429 0.0999,-0.0999 0.44073,0.34564 0.58089,0.56292 0.36313,0.56292 -0.055,0 -0.26331,-0.20836 -0.46303,-0.46303 z m -85.95583,-2.05052 c 0.49366,-0.50932 0.95709,-0.92604 1.02985,-0.92604 0.0728,0 -0.27161,0.41672 -0.76527,0.92604 -0.49365,0.50933 -0.95708,0.92605 -1.02984,0.92605 -0.0728,0 0.27161,-0.41672 0.76526,-0.92605 z m 82.25167,-1.12447 c -0.32911,-0.41965 -0.31975,-0.42901 0.0999,-0.0999 0.25466,0.19972 0.46302,0.40808 0.46302,0.46302 0,0.21776 -0.21727,0.0776 -0.56291,-0.36312 z m 142.90875,-1.48896 c 0,-0.0549 0.20836,-0.2633 0.46302,-0.46302 0.41964,-0.32911 0.429,-0.31975 0.0999,0.0999 -0.34564,0.44073 -0.56291,0.58089 -0.56291,0.36313 z m -290.17674,-1.14179 c 0.25743,-0.0671 0.61462,-0.0627 0.79375,0.01 0.17913,0.0725 -0.0315,0.12736 -0.46805,0.12197 -0.43657,-0.005 -0.58313,-0.0647 -0.3257,-0.13177 z m 33.3361,-0.007 c 0.40219,-0.0608 0.9975,-0.0592 1.32292,0.004 0.32542,0.0628 -0.004,0.11256 -0.73124,0.11057 -0.7276,-0.002 -0.99386,-0.0534 -0.59168,-0.11418 z m 4.11395,-0.25546 c 0.19099,-0.0764 0.41919,-0.067 0.50711,0.0209 0.0879,0.0879 -0.0683,0.15046 -0.34726,0.13897 -0.30823,-0.0127 -0.37092,-0.0754 -0.15985,-0.15985 z m 197.23033,-0.27659 c 0.54571,-0.0571 1.43867,-0.0571 1.98438,0 0.5457,0.0571 0.0992,0.10379 -0.99219,0.10379 -1.09141,0 -1.53789,-0.0467 -0.99219,-0.10379 z m 13.89063,0.0175 c 0.1819,-0.0734 0.47956,-0.0734 0.66146,0 0.1819,0.0734 0.0331,0.13346 -0.33073,0.13346 -0.36381,0 -0.51263,-0.0601 -0.33073,-0.13346 z m -79.87177,-0.55237 c -0.32911,-0.41965 -0.31975,-0.429 0.0999,-0.0999 0.25466,0.19972 0.46302,0.40808 0.46302,0.46302 0,0.21777 -0.21727,0.0776 -0.56291,-0.36312 z m 59.10701,0.27967 c 0.25743,-0.0671 0.61462,-0.0627 0.79375,0.01 0.17913,0.0725 -0.0315,0.12736 -0.46805,0.12197 -0.43657,-0.005 -0.58313,-0.0647 -0.3257,-0.13177 z m 27.37934,0.008 c 0.1819,-0.0734 0.47956,-0.0734 0.66146,0 0.1819,0.0734 0.0331,0.13345 -0.33073,0.13345 -0.3638,0 -0.51263,-0.06 -0.33073,-0.13345 z m -30.41055,-0.27009 c 0.191,-0.0764 0.4192,-0.067 0.50712,0.0209 0.0879,0.0879 -0.0684,0.15046 -0.34726,0.13897 -0.30823,-0.0127 -0.37092,-0.0754 -0.15986,-0.15985 z m 33.3375,0 c 0.191,-0.0764 0.4192,-0.067 0.50712,0.0209 0.0879,0.0879 -0.0683,0.15046 -0.34726,0.13897 -0.30823,-0.0127 -0.37092,-0.0754 -0.15986,-0.15985 z m -35.99987,-0.25908 c 0.18191,-0.0734 0.47956,-0.0734 0.66146,0 0.1819,0.0734 0.0331,0.13346 -0.33073,0.13346 -0.3638,0 -0.51263,-0.0601 -0.33073,-0.13346 z m -55.3892,-1.47841 -0.50402,-0.59532 0.59531,0.50403 c 0.55944,0.47366 0.71576,0.6866 0.50403,0.6866 -0.0502,0 -0.3181,-0.26789 -0.59532,-0.59531 z m -2.25757,-1.98438 c -0.3291,-0.41964 -0.31974,-0.429 0.0999,-0.0999 0.44073,0.34564 0.58089,0.56291 0.36313,0.56291 -0.055,0 -0.26331,-0.20836 -0.46303,-0.46302 z m -2.36752,-2.11666 -0.64143,-0.72761 0.7276,0.64143 c 0.40018,0.35279 0.7276,0.68021 0.7276,0.72761 0,0.2075 -0.21426,0.0386 -0.81377,-0.64143 z m -25.94289,0 c -0.32911,-0.41965 -0.31975,-0.42901 0.0999,-0.0999 0.25466,0.19972 0.46302,0.40808 0.46302,0.46302 0,0.21776 -0.21727,0.0776 -0.56291,-0.36312 z m 22.75416,-2.91042 c -0.3291,-0.41964 -0.31974,-0.429 0.0999,-0.0999 0.44073,0.34565 0.58089,0.56292 0.36313,0.56292 -0.055,0 -0.26331,-0.20836 -0.46303,-0.46302 z m -88.05161,-0.48507 c 0.0127,-0.30822 0.0754,-0.37092 0.15985,-0.15985 0.0764,0.19099 0.067,0.4192 -0.0209,0.50712 -0.0879,0.0879 -0.15046,-0.0684 -0.13897,-0.34727 z m 34.7385,-2.62378 c 6e-4,-1.60073 0.0442,-2.22146 0.0968,-1.37941 0.0527,0.84206 0.0522,2.15175 -0.001,2.91042 -0.0533,0.75867 -0.0963,0.0697 -0.0958,-1.53101 z m 24.73812,0.99218 c -0.32911,-0.41964 -0.31975,-0.429 0.0999,-0.0999 0.44073,0.34564 0.58089,0.56291 0.36313,0.56291 -0.0549,0 -0.26331,-0.20836 -0.46302,-0.46302 z m 165.41921,0.0441 c 0.0127,-0.30822 0.0754,-0.37092 0.15986,-0.15985 0.0764,0.19099 0.067,0.4192 -0.0209,0.50712 -0.0879,0.0879 -0.15045,-0.0684 -0.13897,-0.34727 z m -245.26874,-0.79375 c 0.0127,-0.30822 0.0754,-0.37092 0.15985,-0.15985 0.0764,0.19099 0.067,0.4192 -0.0209,0.50712 -0.0879,0.0879 -0.15045,-0.0684 -0.13896,-0.34727 z m 104.99867,-0.30868 -0.64144,-0.7276 0.72761,0.64143 c 0.40018,0.35279 0.7276,0.68021 0.7276,0.7276 0,0.20751 -0.21426,0.0386 -0.81377,-0.64143 z m -27.26581,-0.79375 c -0.32911,-0.41964 -0.31975,-0.429 0.0999,-0.0999 0.44073,0.34565 0.58089,0.56292 0.36313,0.56292 -0.0549,0 -0.2633,-0.20836 -0.46302,-0.46302 z m 167.8463,-1.52135 c 0.003,-0.58209 0.0571,-0.78906 0.12041,-0.45994 0.0633,0.32912 0.0609,0.80537 -0.005,1.05833 -0.0662,0.25297 -0.118,-0.0163 -0.11507,-0.59839 z M 514.49384,474.8292 c -0.32911,-0.41965 -0.31975,-0.42901 0.0999,-0.0999 0.25466,0.19972 0.46302,0.40808 0.46302,0.46302 0,0.21776 -0.21727,0.0776 -0.56292,-0.36312 z m 25.58981,-0.83363 c -0.31838,-0.35181 -0.36516,-0.5585 -0.15569,-0.68796 0.16468,-0.10177 0.37087,-0.11359 0.45821,-0.0263 0.0873,0.0873 10e-4,0.15878 -0.19091,0.15878 -0.24679,0 -0.20877,0.15571 0.12921,0.52917 0.26338,0.29104 0.41935,0.52917 0.34659,0.52917 -0.0728,0 -0.33709,-0.22631 -0.58741,-0.5029 z m -101.206,-1.23894 c 0.0127,-0.30823 0.0754,-0.37092 0.15985,-0.15986 0.0764,0.191 0.067,0.4192 -0.0209,0.50712 -0.0879,0.0879 -0.15045,-0.0684 -0.13896,-0.34726 z m 245.5845,-1.16858 c 0,-0.65484 0.0516,-0.92273 0.11467,-0.59531 0.0631,0.32742 0.0631,0.8632 0,1.19062 -0.0631,0.32742 -0.11467,0.0595 -0.11467,-0.59531 z m -376.23132,-3.1073 c 1.13444,-0.0497 2.92038,-0.0494 3.96875,6.7e-4 1.04838,0.0501 0.1202,0.0908 -2.06261,0.0904 -2.18282,-3.7e-4 -3.04058,-0.0413 -1.90614,-0.0911 z m 14.9534,0.0161 c 0.191,-0.0764 0.4192,-0.067 0.50712,0.0209 0.0879,0.0879 -0.0684,0.15045 -0.34727,0.13897 -0.30822,-0.0127 -0.37091,-0.0754 -0.15985,-0.15986 z m 235.26419,-1.50665 c 0,-0.0549 0.20836,-0.2633 0.46302,-0.46302 0.41965,-0.32911 0.42901,-0.31975 0.0999,0.0999 -0.34564,0.44073 -0.56292,0.58089 -0.56292,0.36313 z m 101.83084,-1.42146 c -0.32911,-0.41964 -0.31975,-0.429 0.0999,-0.0999 0.25466,0.19971 0.46302,0.40807 0.46302,0.46302 0,0.21776 -0.21727,0.0776 -0.56291,-0.36313 z m -7.95336,-2.89272 c 0.19099,-0.0764 0.4192,-0.067 0.50712,0.0209 0.0879,0.0879 -0.0684,0.15045 -0.34727,0.13896 -0.30822,-0.0127 -0.37092,-0.0754 -0.15985,-0.15985 z m -21.71237,-0.28205 c 3.52888,-0.0417 9.30341,-0.0417 12.83229,0 3.52888,0.0417 0.64161,0.0758 -6.41615,0.0758 -7.05776,0 -9.94502,-0.0341 -6.41614,-0.0758 z M 339.63801,462.2277 c 0,-0.0549 0.20836,-0.2633 0.46302,-0.46302 0.41964,-0.32911 0.429,-0.31975 0.0999,0.0999 -0.34564,0.44073 -0.56291,0.58089 -0.56291,0.36313 z m 154.08538,-2.54594 c 0,-1.52797 0.0437,-2.15305 0.0972,-1.38906 0.0534,0.76398 0.0534,2.01414 0,2.77812 -0.0534,0.76399 -0.0972,0.13891 -0.0972,-1.38906 z m 124.59205,2.46248 c 0.25743,-0.0671 0.61462,-0.0627 0.79375,0.01 0.17913,0.0725 -0.0315,0.12737 -0.46806,0.12197 -0.43656,-0.005 -0.58312,-0.0647 -0.32569,-0.13177 z m -217.87042,-1.0733 c 4.41244,-0.0407 11.55619,-0.0407 15.875,7e-5 4.3188,0.0408 0.70861,0.0741 -8.02264,0.0741 -8.73125,-4e-5 -12.26481,-0.0334 -7.85236,-0.0742 z m 53.19466,-2.64595 c -0.32911,-0.41964 -0.31975,-0.429 0.0999,-0.0999 0.44073,0.34564 0.58089,0.56291 0.36313,0.56291 -0.055,0 -0.26331,-0.20836 -0.46302,-0.46302 z m -174.72355,-0.33073 c 0.26339,-0.29104 0.53842,-0.52917 0.61118,-0.52917 0.0728,0 -0.0832,0.23813 -0.34659,0.52917 -0.26339,0.29104 -0.53842,0.52917 -0.61118,0.52917 -0.0728,0 0.0832,-0.23813 0.34659,-0.52917 z m 10.00706,-0.99207 c 4.48523,-0.0407 11.74804,-0.0406 16.13958,6e-5 4.39154,0.0407 0.7218,0.074 -8.15497,0.074 -8.87677,-3e-5 -12.46985,-0.0333 -7.98461,-0.074 z m 228.97194,0.007 c 0.46969,-0.0584 1.30313,-0.0594 1.85208,-0.002 0.54895,0.0573 0.16465,0.1051 -0.85399,0.10627 -1.01865,10e-4 -1.46779,-0.0457 -0.99809,-0.10414 z m 11.51891,10e-4 c 0.40218,-0.0608 0.9975,-0.0592 1.32292,0.004 0.32542,0.0628 -0.004,0.11256 -0.73124,0.11058 -0.72761,-0.002 -0.99386,-0.0534 -0.59168,-0.11419 z m -18.65368,-0.26185 c 0.32912,-0.0633 0.80537,-0.0609 1.05834,0.005 0.25296,0.0662 -0.0163,0.118 -0.5984,0.11506 -0.58208,-0.003 -0.78906,-0.0571 -0.45994,-0.1204 z m 24.09054,0.006 c 0.19099,-0.0764 0.4192,-0.067 0.50712,0.0209 0.0879,0.0879 -0.0684,0.15045 -0.34727,0.13896 -0.30822,-0.0127 -0.37092,-0.0754 -0.15985,-0.15985 z m -30.97279,-0.27057 c 0.32742,-0.0631 0.8632,-0.0631 1.19063,0 0.32742,0.0631 0.0595,0.11466 -0.59532,0.11466 -0.65484,0 -0.92273,-0.0516 -0.59531,-0.11466 z m -115.77958,-1.66536 c 0,-0.3638 0.0601,-0.51263 0.13346,-0.33073 0.0734,0.1819 0.0734,0.47956 0,0.66146 -0.0734,0.1819 -0.13346,0.0331 -0.13346,-0.33073 z m 56.18406,-0.26155 c -0.0927,-0.14998 0.0135,-0.19434 0.24897,-0.10399 0.45837,0.1759 0.54223,0.36554 0.16165,0.36554 -0.13694,0 -0.32171,-0.1177 -0.41062,-0.26155 z m -121.8425,-1.16126 c 0,-0.0549 0.20836,-0.2633 0.46302,-0.46302 0.41965,-0.32911 0.429,-0.31975 0.0999,0.0999 -0.34565,0.44073 -0.56292,0.58089 -0.56292,0.36313 z m 64.6304,-1.75219 c 0,-0.65484 0.0516,-0.92273 0.11466,-0.59531 0.0631,0.32742 0.0631,0.8632 0,1.19062 -0.0631,0.32743 -0.11466,0.0595 -0.11466,-0.59531 z m 36.65541,-1.23907 c 0.19099,-0.0764 0.4192,-0.067 0.50712,0.0209 0.0879,0.0879 -0.0684,0.15045 -0.34727,0.13896 -0.30822,-0.0127 -0.37092,-0.0754 -0.15985,-0.15985 z m 212.33032,-0.81131 c 4.0485,-0.0411 10.59694,-0.0411 14.55208,8e-5 3.95514,0.0411 0.64273,0.0748 -7.36092,0.0747 -8.00364,-4e-5 -11.23967,-0.0337 -7.19116,-0.0748 z M 625.3384,449.4469 c 0.19099,-0.0764 0.4192,-0.067 0.50712,0.0209 0.0879,0.0879 -0.0684,0.15046 -0.34727,0.13897 -0.30822,-0.0127 -0.37092,-0.0754 -0.15985,-0.15986 z m -56.28575,-1.29651 c 0.0127,-0.30823 0.0754,-0.37092 0.15985,-0.15985 0.0764,0.19099 0.067,0.41919 -0.0209,0.50711 -0.0879,0.0879 -0.15045,-0.0684 -0.13896,-0.34726 z M 431.8453,447.51098 c 0.26339,-0.29104 0.53842,-0.52917 0.61118,-0.52917 0.0728,0 -0.0832,0.23813 -0.3466,0.52917 -0.26339,0.29104 -0.53842,0.52916 -0.61118,0.52916 -0.0728,0 0.0832,-0.23812 0.3466,-0.52916 z m 120.27401,-1.47726 c 0.0127,-0.30822 0.0754,-0.37092 0.15985,-0.15985 0.0764,0.191 0.067,0.4192 -0.0209,0.50712 -0.0879,0.0879 -0.15046,-0.0684 -0.13897,-0.34727 z m 17.19792,-0.52917 c 0.0127,-0.30822 0.0754,-0.37091 0.15985,-0.15985 0.0764,0.191 0.067,0.4192 -0.0209,0.50712 -0.0879,0.0879 -0.15045,-0.0683 -0.13896,-0.34727 z m -221.98542,-0.26458 c 0.0127,-0.30822 0.0754,-0.37092 0.15986,-0.15985 0.0764,0.191 0.067,0.4192 -0.0209,0.50712 -0.0879,0.0879 -0.15046,-0.0684 -0.13897,-0.34727 z m 205.08278,-1.56545 c 0.005,-0.43656 0.0647,-0.58312 0.13177,-0.32569 0.0671,0.25743 0.0627,0.61462 -0.01,0.79375 -0.0725,0.17913 -0.12736,-0.0315 -0.12197,-0.46806 z m -204.77236,-2.11667 c 0.003,-0.58208 0.0571,-0.78905 0.12041,-0.45993 0.0633,0.32912 0.0609,0.80537 -0.005,1.05833 -0.0662,0.25297 -0.118,-0.0163 -0.11507,-0.5984 z m 222.00551,-1.85208 c 10e-4,-1.01865 0.049,-1.40294 0.10628,-0.85399 0.0573,0.54894 0.0563,1.38238 -0.002,1.85208 -0.0584,0.4697 -0.10531,0.0206 -0.10414,-0.99809 z m 24.07225,-0.26458 c 10e-4,-0.87313 0.0509,-1.19842 0.10977,-0.72287 0.0589,0.47555 0.0577,1.18993 -0.003,1.5875 -0.0604,0.39758 -0.10855,0.008 -0.10707,-0.86463 z m 20.84099,0.7717 c 0.0127,-0.30823 0.0754,-0.37092 0.15985,-0.15985 0.0764,0.19099 0.067,0.4192 -0.0209,0.50711 -0.0879,0.0879 -0.15045,-0.0684 -0.13896,-0.34726 z m -179.12292,-1.32292 c 0.0127,-0.30822 0.0754,-0.37092 0.15986,-0.15985 0.0764,0.191 0.067,0.4192 -0.0209,0.50712 -0.0879,0.0879 -0.15046,-0.0684 -0.13897,-0.34727 z m 20.37292,-0.26458 c 0.0127,-0.30823 0.0754,-0.37092 0.15985,-0.15985 0.0764,0.19099 0.067,0.4192 -0.0209,0.50711 -0.0879,0.0879 -0.15045,-0.0684 -0.13896,-0.34726 z m -108.18389,-1.30087 c 0.005,-0.43656 0.0647,-0.58312 0.13177,-0.32569 0.0671,0.25743 0.0627,0.61462 -0.01,0.79375 -0.0725,0.17913 -0.12736,-0.0315 -0.12197,-0.46806 z m 145.84366,-4.10104 c 0,-2.69214 0.0393,-3.79346 0.0873,-2.4474 0.048,1.34607 0.048,3.54873 0,4.89479 -0.048,1.34607 -0.0873,0.24474 -0.0873,-2.44739 z m -166.77644,3.54983 c 0.0127,-0.30823 0.0754,-0.37092 0.15986,-0.15986 0.0764,0.191 0.067,0.4192 -0.0209,0.50712 -0.0879,0.0879 -0.15046,-0.0684 -0.13897,-0.34726 z m 287.86667,0 c 0.0127,-0.30823 0.0754,-0.37092 0.15985,-0.15986 0.0764,0.191 0.067,0.4192 -0.0209,0.50712 -0.0879,0.0879 -0.15045,-0.0684 -0.13896,-0.34726 z m -61.87201,-0.63941 c 0,-0.50933 0.0544,-0.71769 0.121,-0.46303 0.0666,0.25467 0.0666,0.67138 0,0.92605 -0.0666,0.25466 -0.121,0.0463 -0.121,-0.46302 z m -205.35716,-2.00643 c 0.0127,-0.30822 0.0754,-0.37092 0.15986,-0.15985 0.0764,0.191 0.067,0.4192 -0.0209,0.50712 -0.0879,0.0879 -0.15046,-0.0684 -0.13897,-0.34727 z m 222.28069,-0.24253 c 0.005,-0.43657 0.0647,-0.58313 0.13178,-0.3257 0.0671,0.25743 0.0627,0.61462 -0.01,0.79375 -0.0725,0.17914 -0.12736,-0.0315 -0.12197,-0.46805 z m -16.93333,-1.85209 c 0.005,-0.43656 0.0647,-0.58312 0.13177,-0.32569 0.0671,0.25743 0.0627,0.61462 -0.01,0.79375 -0.0725,0.17913 -0.12736,-0.0315 -0.12197,-0.46806 z m 129.17224,-2.57968 -0.50403,-0.59532 0.59531,0.50403 c 0.55945,0.47366 0.71577,0.6866 0.50403,0.6866 -0.0502,0 -0.31809,-0.26789 -0.59531,-0.59531 z m -63.60715,-0.8275 c 0,-0.0549 0.20836,-0.2633 0.46302,-0.46302 0.41964,-0.32911 0.429,-0.31975 0.0999,0.0999 -0.34564,0.44073 -0.56291,0.58089 -0.56291,0.36313 z m -295.16785,-0.76 -0.50403,-0.59532 0.59532,0.50403 c 0.32742,0.27722 0.59531,0.54511 0.59531,0.59531 0,0.21174 -0.21294,0.0554 -0.6866,-0.50402 z m 223.39962,0.40391 c 0.47294,-0.0587 1.24685,-0.0587 1.71979,0 0.47294,0.0587 0.086,0.10671 -0.8599,0.10671 -0.94588,0 -1.33283,-0.048 -0.85989,-0.10671 z M 387.05,426.74119 c 0.005,-0.43656 0.0647,-0.58313 0.13178,-0.3257 0.0671,0.25744 0.0627,0.61462 -0.01,0.79375 -0.0725,0.17914 -0.12736,-0.0315 -0.12197,-0.46805 z m 278.50506,-1.63595 c 0.191,-0.0764 0.4192,-0.067 0.50712,0.0209 0.0879,0.0879 -0.0684,0.15045 -0.34726,0.13896 -0.30823,-0.0127 -0.37092,-0.0754 -0.15986,-0.15985 z m -351.3832,-0.25907 c 0.1819,-0.0734 0.47956,-0.0734 0.66146,0 0.1819,0.0734 0.0331,0.13345 -0.33073,0.13345 -0.3638,0 -0.51263,-0.06 -0.33073,-0.13345 z m 348.19167,0 c 0.1819,-0.0734 0.47955,-0.0734 0.66146,0 0.1819,0.0734 0.0331,0.13345 -0.33073,0.13345 -0.36381,0 -0.51263,-0.06 -0.33073,-0.13345 z m -375.56504,-0.28581 c 0.98832,-0.051 2.53613,-0.0507 3.43958,8.4e-4 0.90346,0.0515 0.0948,0.0933 -1.79694,0.0928 -1.89177,-4.6e-4 -2.63096,-0.0426 -1.64264,-0.0937 z m 23.8015,0.0141 c 0.25466,-0.0666 0.67138,-0.0666 0.92604,0 0.25466,0.0666 0.0463,0.121 -0.46302,0.121 -0.50932,0 -0.71768,-0.0544 -0.46302,-0.121 z m 318.97174,0.002 c 0.191,-0.0764 0.4192,-0.067 0.50712,0.0209 0.0879,0.0879 -0.0684,0.15045 -0.34727,0.13896 -0.30822,-0.0127 -0.37092,-0.0754 -0.15985,-0.15985 z m 28.43121,-0.003 c 0.25743,-0.0671 0.61462,-0.0627 0.79375,0.01 0.17913,0.0725 -0.0315,0.12736 -0.46806,0.12197 -0.43656,-0.005 -0.58312,-0.0647 -0.32569,-0.13177 z m -25.52079,-0.26197 c 0.19099,-0.0764 0.4192,-0.067 0.50712,0.0209 0.0879,0.0879 -0.0684,0.15045 -0.34727,0.13896 -0.30822,-0.0127 -0.37092,-0.0754 -0.15985,-0.15985 z m 21.28745,-0.003 c 0.25744,-0.0671 0.61462,-0.0627 0.79375,0.01 0.17914,0.0725 -0.0315,0.12736 -0.46805,0.12197 -0.43656,-0.005 -0.58313,-0.0647 -0.3257,-0.13177 z m -265.97743,-0.18113 c 0,-0.0549 0.20836,-0.2633 0.46303,-0.46302 0.41964,-0.32911 0.429,-0.31975 0.0999,0.0999 -0.34564,0.44072 -0.56292,0.58088 -0.56292,0.36312 z m 36.99206,-1.40376 c 0.191,-0.0764 0.4192,-0.067 0.50712,0.0209 0.0879,0.0879 -0.0684,0.15045 -0.34727,0.13896 -0.30822,-0.0127 -0.37091,-0.0754 -0.15985,-0.15985 z m -33.48633,-0.26623 c 0.25467,-0.0666 0.67138,-0.0666 0.92605,0 0.25466,0.0666 0.0463,0.121 -0.46303,0.121 -0.50932,0 -0.71768,-0.0544 -0.46302,-0.121 z m 25.53929,-0.0117 c 0.62231,-0.0559 1.57481,-0.0551 2.11667,0.002 0.54185,0.0569 0.0327,0.10259 -1.13148,0.10162 -1.16416,-9.6e-4 -1.6075,-0.0475 -0.98519,-0.10336 z m 58.55296,-1.81236 c 0.0127,-0.30822 0.0754,-0.37092 0.15985,-0.15985 0.0764,0.191 0.067,0.4192 -0.0209,0.50712 -0.0879,0.0879 -0.15045,-0.0684 -0.13896,-0.34727 z m -24.77608,-1.76389 -0.7771,-0.85989 0.85989,0.7771 c 0.80155,0.72437 0.98151,0.94269 0.77711,0.94269 -0.0455,0 -0.43249,-0.38695 -0.8599,-0.8599 z m 113.35685,-0.13229 c -0.3291,-0.41964 -0.31974,-0.429 0.0999,-0.0999 0.44073,0.34564 0.58089,0.56291 0.36313,0.56291 -0.0549,0 -0.26331,-0.20836 -0.46303,-0.46302 z m 116.83065,-0.39687 -0.7771,-0.8599 0.85989,0.77711 c 0.47294,0.4274 0.8599,0.81436 0.8599,0.85989 0,0.20441 -0.21832,0.0244 -0.94269,-0.7771 z m -119.2119,-1.98438 c -0.3291,-0.41964 -0.31974,-0.429 0.0999,-0.0999 0.25466,0.19972 0.46302,0.40808 0.46302,0.46302 0,0.21776 -0.21727,0.0776 -0.56292,-0.36313 z M 320.78645,413.193 c 0.32742,-0.0631 0.8632,-0.0631 1.19062,0 0.32742,0.0631 0.0595,0.11467 -0.59531,0.11467 -0.65485,0 -0.92274,-0.0516 -0.59531,-0.11467 z m 114.03541,0.0115 c 0.1819,-0.0734 0.47956,-0.0734 0.66146,0 0.1819,0.0734 0.0331,0.13345 -0.33073,0.13345 -0.3638,0 -0.51263,-0.06 -0.33073,-0.13345 z m -163.90937,-0.28209 c 0.5457,-0.0571 1.43867,-0.0571 1.98437,0 0.54571,0.0571 0.0992,0.10378 -0.99218,0.10378 -1.09141,0 -1.5379,-0.0467 -0.99219,-0.10378 z m 41.93646,10e-4 c 0.47294,-0.0587 1.24684,-0.0587 1.71979,0 0.47294,0.0587 0.086,0.10671 -0.8599,0.10671 -0.94588,0 -1.33284,-0.048 -0.85989,-0.10671 z m 74.74843,0.002 c 0.40218,-0.0608 0.99749,-0.0592 1.32291,0.004 0.32542,0.0628 -0.004,0.11256 -0.73124,0.11057 -0.7276,-0.002 -0.99386,-0.0534 -0.59167,-0.11418 z m 37.83541,0 c 0.40218,-0.0608 0.9975,-0.0592 1.32292,0.004 0.32542,0.0628 -0.004,0.11256 -0.73124,0.11057 -0.72761,-0.002 -0.99386,-0.0534 -0.59168,-0.11418 z m 196.46602,0.009 c 0.191,-0.0764 0.4192,-0.067 0.50712,0.0209 0.0879,0.0879 -0.0684,0.15046 -0.34726,0.13897 -0.30823,-0.0127 -0.37092,-0.0754 -0.15986,-0.15985 z m 38.1,0 c 0.191,-0.0764 0.4192,-0.067 0.50712,0.0209 0.0879,0.0879 -0.0684,0.15046 -0.34726,0.13897 -0.30823,-0.0127 -0.37092,-0.0754 -0.15986,-0.15985 z M 400.17662,412.6528 c 1.79097,-0.0458 4.64847,-0.0457 6.35,3.1e-4 1.70152,0.046 0.23618,0.0835 -3.25632,0.0833 -3.4925,-1.7e-4 -4.88466,-0.0378 -3.09368,-0.0837 z m 10.84161,0.002 c 0.76886,-0.0536 1.95949,-0.053 2.64583,10e-4 0.68635,0.0543 0.0573,0.0982 -1.39793,0.0975 -1.45521,-6.9e-4 -2.01676,-0.0451 -1.2479,-0.0987 z m 214.30363,0.0202 c 0.1819,-0.0734 0.47956,-0.0734 0.66146,0 0.1819,0.0734 0.0331,0.13345 -0.33073,0.13345 -0.3638,0 -0.51263,-0.0601 -0.33073,-0.13345 z m 31.09358,-0.008 c 0.25743,-0.0671 0.61462,-0.0627 0.79375,0.01 0.17913,0.0725 -0.0315,0.12737 -0.46806,0.12197 -0.43656,-0.005 -0.58312,-0.0647 -0.32569,-0.13177 z m -26.06341,-0.26836 c 0.32912,-0.0633 0.80537,-0.0609 1.05833,0.005 0.25297,0.0662 -0.0163,0.118 -0.59839,0.11507 -0.58209,-0.003 -0.78906,-0.0571 -0.45994,-0.12041 z m 18.78707,-0.005 c 0.47555,-0.0589 1.18992,-0.0577 1.5875,0.003 0.39758,0.0604 0.008,0.10855 -0.86463,0.10706 -0.87313,-10e-4 -1.19842,-0.0509 -0.72287,-0.10976 z M 485.88645,411.617 c 0.1819,-0.0734 0.47955,-0.0734 0.66145,0 0.1819,0.0734 0.0331,0.13345 -0.33073,0.13345 -0.3638,0 -0.51263,-0.06 -0.33072,-0.13345 z m 59.79583,0 c 0.1819,-0.0734 0.47956,-0.0734 0.66146,0 0.1819,0.0734 0.0331,0.13345 -0.33073,0.13345 -0.3638,0 -0.51263,-0.06 -0.33073,-0.13345 z m -39.02604,-0.27886 c 0.40018,-0.0606 1.05502,-0.0606 1.4552,0 0.40019,0.0606 0.0728,0.11022 -0.7276,0.11022 -0.80036,0 -1.12779,-0.0496 -0.7276,-0.11022 z m 32.81197,-3.5e-4 c 0.40218,-0.0608 0.99749,-0.0592 1.32291,0.004 0.32543,0.0628 -0.004,0.11256 -0.73124,0.11057 -0.7276,-0.002 -0.99386,-0.0534 -0.59167,-0.11418 z m -174.4302,-85.16262 c -0.65485,-0.0535 -2.8575,-0.22594 -4.89479,-0.38319 -8.79325,-0.67872 -17.13199,-2.22631 -23.52823,-4.36663 -6.60037,-2.20862 -19.42626,-8.70869 -29.12386,-14.75976 -51.51176,-32.14212 -60.98165,-77.43584 -27.69631,-132.46918 5.52862,-9.14092 12.71792,-19.14029 20.46113,-28.45873 6.82835,-8.21748 11.64794,-13.43926 21.23664,-23.00887 6.57755,-6.56446 10.1937,-9.96976 17.11091,-16.11318 4.11136,-3.65144 11.17821,-9.408624 11.3456,-9.24296 0.0685,0.06784 0.009,0.206172 -0.1323,0.3074 -0.1413,0.101229 -0.297,0.41463 -0.346,0.696448 -0.17591,1.011838 -4.25429,9.776122 -10.10374,21.712602 -3.97282,8.10698 -6.63321,13.60837 -8.06075,16.66875 -0.47516,1.01865 -1.39773,2.98318 -2.05015,4.36562 -2.29575,4.86459 -5.92185,13.37793 -7.8886,18.52084 -4.66669,12.20299 -7.30279,21.91198 -8.62052,31.75 -0.66803,4.98747 -0.67498,14.5626 -0.0136,18.78541 1.79343,11.45145 6.32655,20.50866 14.27688,28.5253 12.29807,12.40065 30.73541,20.79368 58.52365,26.64111 25.37373,5.33934 49.68352,7.61797 74.60308,6.99276 4.7919,-0.12022 9.61393,-0.28606 10.71563,-0.36853 10.07329,-0.75406 15.34501,-1.26557 21.97912,-2.1326 4.01857,-0.52521 4.81697,-0.65202 15.74271,-2.50054 5.82203,-0.98502 21.9316,-4.77669 28.83958,-6.7879 15.19083,-4.4227 32.25783,-10.69238 44.13493,-16.21326 1.28192,-0.59588 2.39551,-1.08342 2.47464,-1.08342 0.18852,0 17.60401,-8.71468 17.94876,-8.98152 0.14552,-0.11264 1.21709,-0.71349 2.38125,-1.33523 10.48473,-5.59952 23.02968,-13.4379 34.66042,-21.65666 21.13649,-14.93592 42.66275,-34.48765 57.65341,-52.36506 1.41678,-1.6896 1.90438,-2.11326 2.17435,-1.8892 0.38778,0.32183 -0.48869,1.49283 -8.10172,10.82433 -7.02371,8.60915 -20.712,24.48643 -24.87083,28.84809 -0.21828,0.22892 -1.70657,1.83606 -3.30729,3.57142 -5.95225,6.45286 -7.87522,8.43244 -18.36885,18.90967 -14.38395,14.36148 -22.75269,21.96473 -36.13532,32.83001 -6.5852,5.34648 -16.19891,12.34596 -23.28333,16.95196 -4.93218,3.2067 -7.24976,4.57374 -15.34584,9.05187 -2.98492,1.65103 -13.84007,6.8731 -18.78541,9.03707 -8.00197,3.50149 -17.55273,7.32322 -24.47396,9.79324 -9.32884,3.32925 -20.56413,7.06492 -25.4,8.44536 -0.65485,0.18693 -2.79797,0.82268 -4.7625,1.41278 -8.51314,2.55714 -24.11758,6.60321 -33.86667,8.78129 -24.06769,5.37705 -45.22396,8.59969 -67.86562,10.33768 -3.56052,0.27331 -26.78575,0.55564 -29.23646,0.35541 z M 585.2434,216.79432 c 0,-0.65484 0.0516,-0.92273 0.11467,-0.59531 0.0631,0.32742 0.0631,0.8632 0,1.19063 -0.0631,0.32742 -0.11467,0.0595 -0.11467,-0.59532 z M 398.96702,189.624 c -0.0343,-12.97914 0.0269,-23.65366 0.13609,-23.72115 0.17975,-0.11115 0.17795,16.69398 -0.004,38.85293 -0.0383,4.65667 -0.0976,-2.15263 -0.13193,-15.13178 z m 45.71054,-0.13472 c -0.0727,-13.05324 -0.0423,-23.6432 0.0676,-23.53325 0.10993,0.10996 0.16944,10.78989 0.13225,23.73317 l -0.0676,23.53325 z m 141.09501,-21.37829 c 0,-0.65484 0.0516,-0.92273 0.11466,-0.59531 0.0631,0.32742 0.0631,0.8632 0,1.19063 -0.0631,0.32742 -0.11466,0.0595 -0.11466,-0.59532 z M 468.88138,122.60266 c 0,-13.02411 0.0323,-18.35216 0.0717,-11.8401 0.0394,6.51206 0.0394,17.16815 0,23.68021 -0.0394,6.51205 -0.0717,1.18401 -0.0717,-11.84011 z m 45.77292,0 c 0,-13.02411 0.0322,-18.35216 0.0717,-11.8401 0.0394,6.51206 0.0394,17.16815 0,23.68021 -0.0394,6.51205 -0.0717,1.18401 -0.0717,-11.84011 z m 71.38285,20.10833 c 0,-0.65484 0.0516,-0.92273 0.11467,-0.59531 0.0631,0.32742 0.0631,0.8632 0,1.19063 -0.0631,0.32742 -0.11467,0.0595 -0.11467,-0.59532 z m 0.26459,-25.39999 c 0,-0.65485 0.0516,-0.92274 0.11466,-0.59532 0.0631,0.32743 0.0631,0.86321 0,1.19063 -0.0631,0.32742 -0.11466,0.0595 -0.11466,-0.59531 z m 95.24911,-18.439607 c 0.25744,-0.06708 0.61462,-0.06267 0.79375,0.0098 0.17914,0.07247 -0.0315,0.127362 -0.46805,0.121969 -0.43656,-0.0054 -0.58313,-0.06469 -0.3257,-0.131773 z M 425.43507,-9.6889976 c 0,-0.6548434 0.0516,-0.9227344 0.11466,-0.5953124 0.0631,0.3274218 0.0631,0.863203 0,1.1906248 -0.0631,0.3274219 -0.11466,0.059531 -0.11466,-0.5953124 z"
         id="path4" /><path
         style="fill:#6eab45"
         d="m 391.43719,501.2919 c 0.62231,-0.0559 1.57481,-0.0551 2.11667,0.002 0.54185,0.0568 0.0327,0.10258 -1.13148,0.10162 -1.16416,-9.6e-4 -1.6075,-0.0475 -0.98519,-0.10337 z m 31.61575,0.0107 c 0.25743,-0.0671 0.61462,-0.0627 0.79375,0.01 0.17913,0.0725 -0.0315,0.12736 -0.46806,0.12197 -0.43656,-0.005 -0.58312,-0.0647 -0.32569,-0.13178 z m -52.50829,-0.26197 c 0.19099,-0.0764 0.4192,-0.067 0.50712,0.0209 0.0879,0.0879 -0.0683,0.15045 -0.34727,0.13896 -0.30822,-0.0127 -0.37092,-0.0754 -0.15985,-0.15985 z m 123.36633,-20.34651 c 0.0127,-0.30823 0.0754,-0.37092 0.15985,-0.15986 0.0764,0.191 0.067,0.4192 -0.0209,0.50712 -0.0879,0.0879 -0.15045,-0.0684 -0.13896,-0.34726 z m 190.5,-7.67292 c 0.0127,-0.30822 0.0754,-0.37092 0.15985,-0.15985 0.0764,0.19099 0.067,0.4192 -0.0209,0.50712 -0.0879,0.0879 -0.15045,-0.0684 -0.13896,-0.34727 z M 493.43299,439.04431 c 0,-0.65484 0.0516,-0.92273 0.11466,-0.59531 0.0631,0.32742 0.0631,0.8632 0,1.19062 -0.0631,0.32743 -0.11466,0.0595 -0.11466,-0.59531 z m -145.8059,-0.39687 c 0.005,-0.43657 0.0647,-0.58313 0.13177,-0.3257 0.0671,0.25743 0.0627,0.61462 -0.01,0.79375 -0.0725,0.17913 -0.12736,-0.0315 -0.12197,-0.46805 z m 222.0059,-1.71979 c 0,-0.65485 0.0516,-0.92274 0.11466,-0.59532 0.0631,0.32742 0.0631,0.86321 0,1.19063 -0.0631,0.32742 -0.11466,0.0595 -0.11466,-0.59531 z M 284.55507,424.57607 c 0.19099,-0.0764 0.4192,-0.067 0.50711,0.0209 0.0879,0.0879 -0.0684,0.15045 -0.34726,0.13896 -0.30823,-0.0127 -0.37092,-0.0754 -0.15985,-0.15985 z m 190.85596,-2.99426 c 0,-0.3638 0.0601,-0.51263 0.13346,-0.33073 0.0734,0.1819 0.0734,0.47956 0,0.66146 -0.0734,0.1819 -0.13346,0.0331 -0.13346,-0.33073 z m -201.18817,-8.65379 c 0.32912,-0.0633 0.80537,-0.0609 1.05834,0.005 0.25296,0.0662 -0.0163,0.118 -0.5984,0.11506 -0.58208,-0.003 -0.78905,-0.0571 -0.45994,-0.1204 z m 150.03221,0.006 c 0.19099,-0.0764 0.41919,-0.067 0.50711,0.0209 0.0879,0.0879 -0.0684,0.15046 -0.34726,0.13897 -0.30823,-0.0127 -0.37092,-0.0754 -0.15985,-0.15985 z m 84.66666,-1.5875 c 0.191,-0.0764 0.4192,-0.067 0.50712,0.0209 0.0879,0.0879 -0.0684,0.15046 -0.34727,0.13897 -0.30822,-0.0127 -0.37092,-0.0754 -0.15985,-0.15985 z m 76.25134,-181.12498 c 9.5e-4,-1.92815 0.12054,-13.74511 0.26576,-26.2599 0.47385,-40.83674 1.05325,-95.68862 1.05435,-99.81658 l 10e-4,-4.03742 -8.53282,-5.639143 c -4.69304,-3.10153 -10.79402,-7.118754 -13.55773,-8.927163 -2.76371,-1.80841 -8.62699,-5.669268 -13.02951,-8.579685 -4.40253,-2.910416 -10.89241,-7.191312 -14.42196,-9.513101 -3.52954,-2.321789 -9.69158,-6.381077 -13.6934,-9.020639 -7.56288,-4.988399 -15.87835,-10.465612 -23.8125,-15.684759 -2.54661,-1.675183 -8.6188,-5.679895 -13.49375,-8.89936 -4.87495,-3.219465 -11.30383,-7.455625 -14.2864,-9.413689 -2.98257,-1.958063 -9.02562,-5.941365 -13.42899,-8.851782 -4.40338,-2.910416 -10.29747,-6.799068 -13.09798,-8.6414482 -15.7588,-10.3672875 -19.39516,-12.7865285 -19.54423,-13.0026198 -0.0907,-0.1314633 -0.11986,-2.5781404 -0.0648,-5.43706 0.055,-2.85892 0.17303,-10.052242 0.26219,-15.985161 l 0.16211,-10.787124 1.6225,0.894485 c 0.89237,0.491967 2.75359,1.492982 4.13604,2.224477 1.38245,0.731496 5.37104,2.847524 8.86354,4.702286 3.4925,1.854762 9.36913,4.969188 13.05918,6.920947 3.69005,1.95176 9.46458,5.013731 12.83229,6.804381 3.36771,1.79065 7.31374,3.884805 8.76895,4.653678 1.4552,0.768873 4.25317,2.2561683 6.2177,3.3051011 4.89014,2.6110171 12.02314,6.3965677 15.21355,8.07396605 1.4552,0.76509628 3.47927,1.83858375 4.49791,2.38552755 1.01865,0.5469439 2.86412,1.5276106 4.10104,2.1792592 1.23693,0.6516487 3.20146,1.6914488 4.36563,2.310667 1.16417,0.6192182 3.36682,1.7852225 4.89479,2.5911207 3.0042,1.5845084 5.16763,2.7381314 8.06979,4.3031194 1.78931,0.964883 23.35069,12.395616 32.54375,17.253021 2.47386,1.307128 5.33136,2.824791 6.35,3.372584 1.01865,0.547793 7.86474,4.179394 15.21354,8.070223 7.34881,3.89083 15.20693,8.055935 17.4625,9.255789 2.25558,1.199854 5.17261,2.75052 6.4823,3.445925 1.30968,0.695405 3.7876,2.021822 5.50649,2.947593 1.71888,0.925771 3.18639,1.683219 3.26113,1.683219 0.0747,0 0.93056,0.457963 1.90184,1.017695 0.97127,0.559733 3.3733,1.8556 5.33783,2.879706 1.96453,1.024106 6.36984,3.34778 9.78958,5.16372 3.41974,1.81594 11.09927,5.893923 17.06563,9.062184 5.96635,3.16826 13.70541,7.272264 17.19791,9.120008 18.03616,9.54222 22.09271,11.761754 22.09271,12.087989 0,0.21619 -0.33799,0.373985 -0.8599,0.401453 -0.47294,0.02489 -1.03849,0.07177 -1.25677,0.104167 -0.21828,0.0324 -7.2132,0.07157 -15.54427,0.08704 l -15.14739,0.02813 V 143.634 188.21326 l -1.65365,1.17963 c -0.9095,0.6488 -2.12989,1.52503 -2.71198,1.94718 -0.58208,0.42215 -5.34458,3.77971 -10.58333,7.46125 -5.23875,3.68153 -10.77516,7.57829 -12.30313,8.65946 -4.54746,3.21773 -22.53622,15.9017 -23.6802,16.69705 -0.58209,0.40469 -3.88615,2.72346 -7.34237,5.15281 -3.45622,2.42936 -6.34348,4.41702 -6.41614,4.41702 -0.0727,0 -0.13134,-1.57758 -0.13039,-3.50573 z"
         id="path3" /><path
         style="fill:#575757"
         d="m 475.49824,462.85681 c 0,-22.48297 0.0312,-31.68054 0.0694,-20.43906 0.0382,11.24148 0.0382,29.63664 0,40.87812 -0.0382,11.24149 -0.0694,2.04391 -0.0694,-20.43906 z m 71.15109,39.88594 -0.50403,-0.59532 0.59531,0.50403 c 0.32742,0.27722 0.59531,0.54511 0.59531,0.59531 0,0.21174 -0.21293,0.0554 -0.68659,-0.50402 z m 16.37898,0.39741 c 2.00961,-0.045 5.22429,-0.0449 7.14375,2.6e-4 1.91945,0.0451 0.27522,0.082 -3.65384,0.0818 -3.92907,-1.5e-4 -5.49953,-0.0371 -3.48991,-0.0821 z m 9.06173,-1.00114 c -0.28247,-0.21365 -0.38635,-0.38846 -0.23083,-0.38846 0.15551,0 0.43097,0.17859 0.61213,0.39687 0.41201,0.49645 0.2824,0.49359 -0.3813,-0.008 z m 53.36411,-0.3194 c 0.83675,-0.0525 2.20597,-0.0525 3.04271,0 0.83675,0.0525 0.15214,0.0955 -1.52135,0.0955 -1.67349,0 -2.3581,-0.043 -1.52136,-0.0955 z m 12.7,0 c 0.83675,-0.0525 2.20597,-0.0525 3.04271,0 0.83675,0.0525 0.15214,0.0955 -1.52135,0.0955 -1.67349,0 -2.3581,-0.043 -1.52136,-0.0955 z m -20.23754,-0.25619 c 0.32912,-0.0633 0.80537,-0.0609 1.05834,0.005 0.25296,0.0662 -0.0163,0.118 -0.5984,0.11507 -0.58208,-0.003 -0.78906,-0.0571 -0.45994,-0.12041 z m 29.89792,0 c 0.32912,-0.0633 0.80537,-0.0609 1.05833,0.005 0.25297,0.0662 -0.0163,0.118 -0.59839,0.11507 -0.58209,-0.003 -0.78906,-0.0571 -0.45994,-0.12041 z M 401.3334,501.28776 c 3.88241,-0.0412 10.31178,-0.0412 14.2875,-8e-5 3.97571,0.0412 0.79919,0.0749 -7.05893,0.0749 -7.85813,5e-5 -11.11099,-0.0336 -7.22857,-0.0749 z m 212.34679,0.023 c 0.18191,-0.0734 0.47956,-0.0734 0.66146,0 0.1819,0.0734 0.0331,0.13345 -0.33073,0.13345 -0.3638,0 -0.51263,-0.0601 -0.33073,-0.13345 z m 38.50191,-0.008 c 0.25744,-0.0671 0.61462,-0.0627 0.79375,0.01 0.17914,0.0725 -0.0315,0.12736 -0.46805,0.12197 -0.43656,-0.005 -0.58313,-0.0647 -0.3257,-0.13178 z m -279.00815,-0.27807 c 1.20054,-0.049 3.16507,-0.049 4.36562,0 1.20055,0.049 0.21828,0.0891 -2.18281,0.0891 -2.4011,0 -3.38336,-0.0401 -2.18281,-0.0891 z m 57.28229,0.0145 c 0.25466,-0.0666 0.67138,-0.0666 0.92604,0 0.25466,0.0666 0.0463,0.121 -0.46302,0.121 -0.50933,0 -0.71768,-0.0544 -0.46302,-0.121 z m 113.42586,-0.80981 -0.9118,-0.99218 1.05541,0.92604 c 0.58048,0.50932 1.10634,0.95581 1.16858,0.99219 0.0622,0.0364 -0.002,0.0661 -0.14362,0.0661 -0.14122,0 -0.66708,-0.44648 -1.16857,-0.99219 z m 67.43338,0.81145 c 0.191,-0.0764 0.4192,-0.067 0.50712,0.0209 0.0879,0.0879 -0.0684,0.15045 -0.34727,0.13896 -0.30822,-0.0127 -0.37092,-0.0754 -0.15985,-0.15985 z m 43.92083,0 c 0.191,-0.0764 0.4192,-0.067 0.50712,0.0209 0.0879,0.0879 -0.0684,0.15045 -0.34726,0.13896 -0.30823,-0.0127 -0.37092,-0.0754 -0.15986,-0.15985 z M 366.75443,460.87244 c 10e-6,-22.11917 0.0313,-31.1288 0.0695,-20.02141 0.0382,11.1074 0.0382,29.2049 -1e-5,40.21667 -0.0382,11.01177 -0.0695,1.9239 -0.0695,-20.19526 z m 68.20476,39.90102 c 0.25743,-0.0671 0.61462,-0.0627 0.79375,0.01 0.17913,0.0725 -0.0315,0.12736 -0.46806,0.12197 -0.43656,-0.005 -0.58312,-0.0647 -0.32569,-0.13177 z m 174.23962,0.003 c 0.191,-0.0764 0.4192,-0.067 0.50712,0.0209 0.0879,0.0879 -0.0684,0.15045 -0.34726,0.13896 -0.30823,-0.0127 -0.37092,-0.0754 -0.15986,-0.15985 z m 47.88959,0 c 0.19099,-0.0764 0.4192,-0.067 0.50712,0.0209 0.0879,0.0879 -0.0684,0.15045 -0.34727,0.13896 -0.30822,-0.0127 -0.37092,-0.0754 -0.15985,-0.15985 z m -219.33958,-0.26459 c 0.19099,-0.0764 0.41919,-0.067 0.50711,0.0209 0.0879,0.0879 -0.0683,0.15046 -0.34726,0.13897 -0.30823,-0.0127 -0.37092,-0.0754 -0.15985,-0.15986 z m 131.39009,-0.94373 -0.50403,-0.59532 0.59531,0.50403 c 0.32743,0.27722 0.59532,0.54511 0.59532,0.59531 0,0.21174 -0.21294,0.0554 -0.6866,-0.50402 z m -4.63882,-3.83646 c -0.32911,-0.41965 -0.31975,-0.429 0.0999,-0.0999 0.44073,0.34565 0.58088,0.56292 0.36312,0.56292 -0.0549,0 -0.2633,-0.20836 -0.46302,-0.46302 z m -26.05285,-0.39688 -0.50402,-0.59531 0.59531,0.50403 c 0.55945,0.47366 0.71576,0.6866 0.50403,0.6866 -0.0502,0 -0.3181,-0.26789 -0.59532,-0.59532 z m 56.47993,0.13229 c -0.3291,-0.41964 -0.31974,-0.429 0.0999,-0.0999 0.25466,0.19972 0.46302,0.40808 0.46302,0.46302 0,0.21776 -0.21727,0.0776 -0.56292,-0.36313 z m 80.46709,-0.95979 c 0,-0.0549 0.20836,-0.2633 0.46302,-0.46302 0.41964,-0.3291 0.429,-0.31975 0.0999,0.0999 -0.34564,0.44073 -0.56291,0.58089 -0.56291,0.36312 z m -138.67542,-0.6277 c -0.32911,-0.41965 -0.31975,-0.42901 0.0999,-0.0999 0.25466,0.19972 0.46302,0.40808 0.46302,0.46302 0,0.21776 -0.21727,0.0776 -0.56292,-0.36312 z m -82.38396,-0.8599 c 0.26339,-0.29104 0.53842,-0.52917 0.61118,-0.52917 0.0728,0 -0.0832,0.23813 -0.34659,0.52917 -0.26339,0.29104 -0.53842,0.52917 -0.61118,0.52917 -0.0728,0 0.0832,-0.23813 0.34659,-0.52917 z m 106.99021,0.0661 c -0.32911,-0.41965 -0.31975,-0.42901 0.0999,-0.0999 0.25466,0.19972 0.46302,0.40808 0.46302,0.46302 0,0.21776 -0.21727,0.0776 -0.56292,-0.36312 z m 116.18583,-0.46303 c 0.34178,-0.3638 0.68094,-0.66145 0.7537,-0.66145 0.0728,0 -0.14734,0.29765 -0.48911,0.66145 -0.34178,0.36381 -0.68094,0.66146 -0.7537,0.66146 -0.0728,0 0.14734,-0.29765 0.48911,-0.66146 z m -83.83114,-0.13229 c 0,-0.3638 0.0601,-0.51263 0.13346,-0.33073 0.0734,0.1819 0.0734,0.47956 0,0.66146 -0.0734,0.1819 -0.13346,0.0331 -0.13346,-0.33073 z m -58.81302,-0.19843 c -0.32911,-0.41965 -0.31975,-0.42901 0.0999,-0.0999 0.44073,0.34564 0.58089,0.56292 0.36313,0.56292 -0.0549,0 -0.2633,-0.20836 -0.46302,-0.46302 z m 24.52328,-0.73602 c -0.28247,-0.21366 -0.38635,-0.38846 -0.23083,-0.38846 0.15551,0 0.43097,0.17859 0.61213,0.39687 0.41201,0.49644 0.2824,0.49358 -0.3813,-0.008 z m -65.38835,-5.15096 c 0,-2.98318 0.0386,-4.20357 0.0858,-2.71198 0.0472,1.49159 0.0472,3.93237 0,5.42396 -0.0472,1.49158 -0.0858,0.27119 -0.0858,-2.71198 z m 64.1484,4.03489 c -0.32911,-0.41964 -0.31975,-0.429 0.0999,-0.0999 0.44073,0.34564 0.58088,0.56291 0.36312,0.56291 -0.0549,0 -0.2633,-0.20836 -0.46302,-0.46302 z m -170.95323,0.0232 c 0.1819,-0.0734 0.47956,-0.0734 0.66146,0 0.1819,0.0734 0.0331,0.13345 -0.33073,0.13345 -0.3638,0 -0.51263,-0.06 -0.33073,-0.13345 z m 36.90938,-0.007 c 0.25466,-0.0665 0.67138,-0.0665 0.92604,0 0.25466,0.0666 0.0463,0.121 -0.46302,0.121 -0.50933,0 -0.71768,-0.0545 -0.46302,-0.121 z m 194.73333,-0.53953 c 0.5457,-0.0571 1.43867,-0.0571 1.98437,0 0.54571,0.0571 0.0992,0.10379 -0.99218,0.10379 -1.09141,0 -1.53789,-0.0467 -0.99219,-0.10379 z m 19.97604,-9.9e-4 c 0.61846,-0.0557 1.6305,-0.0557 2.24896,0 0.61846,0.0557 0.11245,0.10128 -1.12448,0.10128 -1.23693,0 -1.74294,-0.0456 -1.12448,-0.10128 z m -107.51212,-0.66616 -0.50402,-0.59532 0.59531,0.50403 c 0.55945,0.47366 0.71576,0.6866 0.50403,0.6866 -0.0502,0 -0.3181,-0.26789 -0.59532,-0.59531 z m 83.57237,0.41196 c 0.25743,-0.0671 0.61461,-0.0627 0.79374,0.01 0.17914,0.0725 -0.0315,0.12736 -0.46805,0.12197 -0.43656,-0.005 -0.58313,-0.0647 -0.32569,-0.13177 z m 30.02517,0.008 c 0.1819,-0.0734 0.47955,-0.0734 0.66146,0 0.1819,0.0734 0.0331,0.13345 -0.33073,0.13345 -0.36381,0 -0.51263,-0.06 -0.33073,-0.13345 z m -88.5893,-0.81696 -0.64143,-0.7276 0.7276,0.64143 c 0.40019,0.35279 0.72761,0.68021 0.72761,0.72761 0,0.2075 -0.21426,0.0386 -0.81378,-0.64144 z m 55.65371,0.54425 c 0.25743,-0.0671 0.61462,-0.0627 0.79375,0.01 0.17913,0.0725 -0.0315,0.12736 -0.46806,0.12197 -0.43656,-0.005 -0.58312,-0.0647 -0.32569,-0.13178 z m 35.33337,0.003 c 0.191,-0.0764 0.4192,-0.067 0.50712,0.0209 0.0879,0.0879 -0.0684,0.15046 -0.34726,0.13897 -0.30823,-0.0127 -0.37092,-0.0754 -0.15986,-0.15985 z m -37.57083,-0.26459 c 0.191,-0.0764 0.4192,-0.067 0.50712,0.0209 0.0879,0.0879 -0.0684,0.15045 -0.34727,0.13896 -0.30822,-0.0127 -0.37092,-0.0754 -0.15985,-0.15985 z m 39.42292,0 c 0.19099,-0.0764 0.4192,-0.067 0.50712,0.0209 0.0879,0.0879 -0.0684,0.15045 -0.34727,0.13896 -0.30822,-0.0127 -0.37092,-0.0754 -0.15985,-0.15985 z m -41.275,-0.26458 c 0.19099,-0.0764 0.4192,-0.067 0.50712,0.0209 0.0879,0.0879 -0.0684,0.15045 -0.34727,0.13896 -0.30822,-0.0127 -0.37092,-0.0754 -0.15985,-0.15985 z m -78.30081,-1.07603 c -0.32911,-0.41965 -0.31975,-0.429 0.0999,-0.0999 0.44073,0.34565 0.58088,0.56292 0.36312,0.56292 -0.0549,0 -0.2633,-0.20836 -0.46302,-0.46302 z m 24.61998,-0.79375 -0.64144,-0.72761 0.72761,0.64144 c 0.40018,0.35279 0.7276,0.68021 0.7276,0.7276 0,0.20751 -0.21426,0.0386 -0.81377,-0.64143 z m -118.7779,-0.46302 c 0.49366,-0.50932 0.95709,-0.92604 1.02985,-0.92604 0.0728,0 -0.27161,0.41672 -0.76526,0.92604 -0.49366,0.50932 -0.95709,0.92604 -1.02985,0.92604 -0.0728,0 0.27161,-0.41672 0.76526,-0.92604 z m 92.18216,-0.46302 -0.50403,-0.59532 0.59531,0.50403 c 0.55945,0.47366 0.71576,0.6866 0.50403,0.6866 -0.0502,0 -0.3181,-0.26789 -0.59531,-0.59531 z m 131.52305,-1.25677 c 0.56839,-0.58209 1.09297,-1.05834 1.16573,-1.05834 0.0728,0 -0.33276,0.47625 -0.90114,1.05834 -0.56839,0.58208 -1.09297,1.05833 -1.16573,1.05833 -0.0728,0 0.33275,-0.47625 0.90114,-1.05833 z m -107.58687,-0.19844 c -0.32911,-0.41964 -0.31975,-0.429 0.0999,-0.0999 0.44073,0.34565 0.58089,0.56292 0.36313,0.56292 -0.0549,0 -0.2633,-0.20836 -0.46302,-0.46302 z m -27.90493,-1.98438 -0.50403,-0.59531 0.59531,0.50403 c 0.55945,0.47366 0.71576,0.6866 0.50403,0.6866 -0.0502,0 -0.3181,-0.26789 -0.59531,-0.59532 z m 24.87932,-0.79375 -0.7771,-0.85989 0.85989,0.7771 c 0.47295,0.42741 0.8599,0.81436 0.8599,0.8599 0,0.20441 -0.21831,0.0244 -0.94269,-0.77711 z m -89.52392,-0.0882 c 0.0127,-0.30822 0.0754,-0.37092 0.15985,-0.15985 0.0764,0.19099 0.067,0.4192 -0.0209,0.50712 -0.0879,0.0879 -0.15045,-0.0684 -0.13896,-0.34727 z m 62.52793,-0.97014 -0.50403,-0.59531 0.59531,0.50403 c 0.32743,0.27721 0.59532,0.5451 0.59532,0.59531 0,0.21173 -0.21294,0.0554 -0.6866,-0.50403 z m -62.21751,-2.18281 c 0.003,-0.58208 0.0571,-0.78906 0.1204,-0.45994 0.0633,0.32912 0.0609,0.80537 -0.005,1.05834 -0.0662,0.25296 -0.118,-0.0163 -0.11506,-0.5984 z m 60.10084,0.33073 -0.50402,-0.59531 0.59531,0.50402 c 0.55945,0.47366 0.71576,0.6866 0.50403,0.6866 -0.0502,0 -0.3181,-0.26789 -0.59532,-0.59531 z m 25.92917,0 -0.50403,-0.59531 0.59531,0.50402 c 0.55945,0.47366 0.71577,0.6866 0.50403,0.6866 -0.0502,0 -0.31809,-0.26789 -0.59531,-0.59531 z m -106.42788,-0.19844 c 0,-0.3638 0.0601,-0.51263 0.13346,-0.33073 0.0734,0.1819 0.0734,0.47956 0,0.66146 -0.0734,0.1819 -0.13346,0.0331 -0.13346,-0.33073 z m 223.81661,-0.94809 c 0.0127,-0.30822 0.0754,-0.37092 0.15986,-0.15985 0.0764,0.19099 0.067,0.4192 -0.0209,0.50712 -0.0879,0.0879 -0.15045,-0.0684 -0.13897,-0.34727 z m 21.43125,0 c 0.0127,-0.30822 0.0754,-0.37092 0.15986,-0.15985 0.0764,0.19099 0.067,0.4192 -0.0209,0.50712 -0.0879,0.0879 -0.15045,-0.0684 -0.13897,-0.34727 z m -166.60123,-0.44097 -0.50403,-0.59531 0.59531,0.50402 c 0.55945,0.47366 0.71577,0.6866 0.50403,0.6866 -0.0502,0 -0.31809,-0.26789 -0.59531,-0.59531 z m -1.85208,-1.5875 -0.50403,-0.59531 0.59531,0.50402 c 0.55945,0.47367 0.71576,0.6866 0.50403,0.6866 -0.0502,0 -0.3181,-0.26789 -0.59531,-0.59531 z m 25.67307,-0.52917 -0.7771,-0.85989 0.85989,0.7771 c 0.47295,0.42741 0.8599,0.81436 0.8599,0.8599 0,0.2044 -0.21831,0.0244 -0.94269,-0.77711 z m 121.67951,-0.85989 c 10e-4,-1.01865 0.049,-1.40295 0.10627,-0.854 0.0573,0.54895 0.0563,1.38239 -0.002,1.85208 -0.0584,0.4697 -0.10531,0.0206 -0.10414,-0.99808 z m -203.74031,-0.52917 c 0.002,-0.72761 0.0534,-0.99386 0.11418,-0.59168 0.0608,0.40219 0.0592,0.9975 -0.004,1.32292 -0.0628,0.32542 -0.11256,-0.004 -0.11057,-0.73124 z m 54.39474,0.19844 c -0.32911,-0.41965 -0.31975,-0.42901 0.0999,-0.0999 0.44073,0.34564 0.58088,0.56292 0.36312,0.56292 -0.0549,0 -0.2633,-0.20836 -0.46302,-0.46302 z m -12.64536,-1.54341 c 0.0127,-0.30822 0.0754,-0.37092 0.15985,-0.15985 0.0764,0.191 0.067,0.4192 -0.0209,0.50712 -0.0879,0.0879 -0.15045,-0.0684 -0.13896,-0.34727 z m -62.1562,-0.63941 c 0,-0.3638 0.0601,-0.51263 0.13346,-0.33073 0.0734,0.18191 0.0734,0.47956 0,0.66146 -0.0734,0.1819 -0.13346,0.0331 -0.13346,-0.33073 z m 20.08745,-1.47725 c 0.0127,-0.30823 0.0754,-0.37092 0.15985,-0.15986 0.0764,0.191 0.067,0.4192 -0.0209,0.50712 -0.0879,0.0879 -0.15045,-0.0684 -0.13896,-0.34726 z m 34.74149,-4.34358 c 0,-1.81901 0.0423,-2.56315 0.0939,-1.65365 0.0517,0.90951 0.0517,2.39779 0,3.3073 -0.0517,0.9095 -0.0939,0.16536 -0.0939,-1.65365 z m 190.41892,2.75608 c 0.0127,-0.30823 0.0754,-0.37092 0.15986,-0.15986 0.0764,0.191 0.067,0.4192 -0.0209,0.50712 -0.0879,0.0879 -0.15045,-0.0684 -0.13897,-0.34726 z M 316.28853,468.4808 c 1.20055,-0.049 3.16508,-0.049 4.36562,0 1.20055,0.049 0.21829,0.0891 -2.18281,0.0891 -2.40109,0 -3.38336,-0.0401 -2.18281,-0.0891 z m -38.45863,-3.63961 c 4.1e-4,-2.0373 0.0419,-2.83576 0.0923,-1.77437 0.0504,1.0614 0.05,2.72827 -7.5e-4,3.70417 -0.0508,0.9759 -0.092,0.10749 -0.0915,-1.9298 z m 46.94183,3.39113 c 0.191,-0.0764 0.4192,-0.067 0.50712,0.0209 0.0879,0.0879 -0.0683,0.15045 -0.34727,0.13896 -0.30822,-0.0127 -0.37091,-0.0754 -0.15985,-0.15985 z m 359.11008,-1.5611 c 0.0127,-0.30822 0.0754,-0.37092 0.15985,-0.15985 0.0764,0.19099 0.067,0.4192 -0.0209,0.50712 -0.0879,0.0879 -0.15046,-0.0684 -0.13897,-0.34727 z m -123.5813,-1.56545 c 0.34177,-0.3638 0.68094,-0.66146 0.7537,-0.66146 0.0728,0 -0.14735,0.29766 -0.48912,0.66146 -0.34177,0.3638 -0.68094,0.66146 -0.7537,0.66146 -0.0728,0 0.14734,-0.29766 0.48912,-0.66146 z m 1.41478,-1.41053 c 0.24115,-0.26648 0.3489,-0.58322 0.23944,-0.70388 -0.10946,-0.12066 -0.0424,-0.12895 0.14895,-0.0184 0.27714,0.16007 0.25533,0.30334 -0.10715,0.70388 -0.25032,0.27659 -0.51465,0.5029 -0.58741,0.5029 -0.0728,0 0.065,-0.21802 0.30617,-0.48449 z M 338.57967,463.0386 c 0,-0.0455 0.38696,-0.43248 0.8599,-0.85989 l 0.8599,-0.77711 -0.77711,0.8599 c -0.72437,0.80154 -0.94269,0.98151 -0.94269,0.7771 z m 311.74532,-0.62876 c 0.25466,-0.0665 0.67138,-0.0665 0.92604,0 0.25466,0.0666 0.0463,0.121 -0.46302,0.121 -0.50933,0 -0.71769,-0.0545 -0.46302,-0.121 z m -30.2948,-0.26892 c 0.32743,-0.0631 0.86321,-0.0631 1.19063,0 0.32742,0.0631 0.0595,0.11466 -0.59531,0.11466 -0.65485,0 -0.92274,-0.0516 -0.59532,-0.11466 z m -3.96875,-0.25309 c 0.18191,-0.0734 0.47956,-0.0734 0.66146,0 0.1819,0.0734 0.0331,0.13345 -0.33073,0.13345 -0.3638,0 -0.51263,-0.06 -0.33073,-0.13345 z m -188.36679,-0.53468 c 0.19099,-0.0764 0.4192,-0.067 0.50712,0.0209 0.0879,0.0879 -0.0684,0.15045 -0.34727,0.13897 -0.30822,-0.0127 -0.37092,-0.0754 -0.15985,-0.15986 z m -2.92387,-0.27097 c 0.32912,-0.0633 0.80537,-0.0609 1.05833,0.005 0.25297,0.0662 -0.0163,0.118 -0.59839,0.11507 -0.58209,-0.003 -0.78906,-0.0571 -0.45994,-0.12041 z m -83.67756,-0.60662 c 0.26339,-0.29104 0.53842,-0.52917 0.61118,-0.52917 0.0728,0 -0.0832,0.23813 -0.3466,0.52917 -0.26339,0.29104 -0.53842,0.52917 -0.61118,0.52917 -0.0728,0 0.0832,-0.23813 0.3466,-0.52917 z m 48.53101,-0.7276 -0.64143,-0.72761 0.7276,0.64144 c 0.68006,0.59951 0.84894,0.81377 0.64144,0.81377 -0.0474,0 -0.37482,-0.32742 -0.72761,-0.7276 z m -76.37841,-2.62978 c 0.25466,-0.0666 0.67138,-0.0666 0.92604,0 0.25466,0.0666 0.0463,0.121 -0.46302,0.121 -0.50932,0 -0.71768,-0.0544 -0.46302,-0.121 z m 201.48021,-0.009 c 0.47294,-0.0587 1.24685,-0.0587 1.71979,0 0.47294,0.0587 0.086,0.10671 -0.8599,0.10671 -0.94588,0 -1.33283,-0.048 -0.85989,-0.10671 z m 16.93333,0.005 c 0.32742,-0.0631 0.8632,-0.0631 1.19063,0 0.32742,0.0631 0.0595,0.11466 -0.59532,0.11466 -0.65484,0 -0.92273,-0.0516 -0.59531,-0.11466 z m -23.41199,-0.26772 c 0.40219,-0.0608 0.9975,-0.0592 1.32292,0.004 0.32542,0.0628 -0.004,0.11256 -0.73124,0.11057 -0.72761,-0.002 -0.99386,-0.0534 -0.59168,-0.11418 z m 27.38074,0.0146 c 0.1819,-0.0734 0.47956,-0.0734 0.66146,0 0.1819,0.0734 0.0331,0.13345 -0.33073,0.13345 -0.3638,0 -0.51263,-0.06 -0.33073,-0.13345 z m 143.32557,-0.94925 -1.04588,-1.12448 1.12448,1.04588 c 1.04575,0.97267 1.24606,1.20308 1.04588,1.20308 -0.0432,0 -0.54924,-0.50602 -1.12448,-1.12448 z m -177.45682,0.67317 c 0.32742,-0.0631 0.8632,-0.0631 1.19063,0 0.32742,0.0631 0.0595,0.11466 -0.59532,0.11466 -0.65484,0 -0.92273,-0.0516 -0.59531,-0.11466 z m 36.79362,0.006 c 0.191,-0.0764 0.4192,-0.067 0.50712,0.0209 0.0879,0.0879 -0.0684,0.15045 -0.34727,0.13897 -0.30822,-0.0127 -0.37092,-0.0754 -0.15985,-0.15986 z m 60.75904,-0.94373 -1.04589,-1.12448 1.12448,1.04588 c 1.04576,0.97266 1.24606,1.20307 1.04589,1.20307 -0.0432,0 -0.54925,-0.50601 -1.12448,-1.12447 z m -153.3632,-0.64377 c 0.19099,-0.0764 0.41919,-0.067 0.50711,0.0209 0.0879,0.0879 -0.0683,0.15045 -0.34726,0.13897 -0.30823,-0.0127 -0.37092,-0.0754 -0.15985,-0.15986 z m -1.9321,-0.35274 c 0.0914,-0.14789 0.27702,-0.2004 0.41249,-0.11667 0.36699,0.22681 0.29856,0.38557 -0.16619,0.38557 -0.22687,0 -0.33771,-0.121 -0.2463,-0.2689 z m -55.6254,-1.3186 c 0,-0.65484 0.0516,-0.92273 0.11466,-0.59531 0.0631,0.32742 0.0631,0.8632 0,1.19062 -0.0631,0.32743 -0.11466,0.0595 -0.11466,-0.59531 z m 160.26544,-0.0828 c 0,-0.0455 0.38695,-0.43249 0.85989,-0.85989 l 0.8599,-0.77711 -0.77711,0.8599 c -0.72437,0.80154 -0.94268,0.98151 -0.94268,0.7771 z m -98.425,-1.85208 c 0,-0.0455 0.38695,-0.43249 0.85989,-0.8599 l 0.8599,-0.7771 -0.77711,0.85989 c -0.72437,0.80155 -0.94268,0.98151 -0.94268,0.77711 z m -53.51198,-0.64469 c 4.69305,-0.0405 12.37258,-0.0405 17.06562,0 4.69305,0.0405 0.85328,0.0736 -8.53281,0.0736 -9.38609,0 -13.22586,-0.0331 -8.53281,-0.0736 z m 28.06237,-0.24701 c 0.19099,-0.0764 0.4192,-0.067 0.50712,0.0209 0.0879,0.0879 -0.0684,0.15045 -0.34727,0.13896 -0.30822,-0.0127 -0.37092,-0.0754 -0.15985,-0.15985 z m 68.95287,-5.11093 c 0,-2.98318 0.0386,-4.20357 0.0858,-2.71198 0.0472,1.49159 0.0472,3.93237 0,5.42396 -0.0472,1.49159 -0.0858,0.2712 -0.0858,-2.71198 z m 172.08254,5.11093 c 0.191,-0.0764 0.4192,-0.067 0.50712,0.0209 0.0879,0.0879 -0.0684,0.15045 -0.34726,0.13896 -0.30823,-0.0127 -0.37092,-0.0754 -0.15986,-0.15985 z m -2.1332,-0.25907 c 0.1819,-0.0734 0.47956,-0.0734 0.66146,0 0.1819,0.0734 0.0331,0.13345 -0.33073,0.13345 -0.3638,0 -0.51263,-0.06 -0.33073,-0.13345 z m -3.30729,-0.27174 c 0.25466,-0.0666 0.67138,-0.0666 0.92604,0 0.25466,0.0666 0.0463,0.121 -0.46302,0.121 -0.50932,0 -0.71768,-0.0545 -0.46302,-0.121 z m -32.94063,-0.26893 c 0.32743,-0.0631 0.86321,-0.0631 1.19063,0 0.32742,0.0631 0.0595,0.11467 -0.59531,0.11467 -0.65485,0 -0.92274,-0.0516 -0.59532,-0.11467 z m -58.38588,-0.49678 c 0.0127,-0.30822 0.0754,-0.37092 0.15985,-0.15985 0.0764,0.19099 0.067,0.4192 -0.0209,0.50712 -0.0879,0.0879 -0.15046,-0.0684 -0.13897,-0.34727 z m 55.47547,0.2437 c 0.1819,-0.0734 0.47956,-0.0734 0.66146,0 0.1819,0.0734 0.0331,0.13345 -0.33073,0.13345 -0.36381,0 -0.51263,-0.06 -0.33073,-0.13345 z m -55.19,-2.20602 c 0,-0.36381 0.0601,-0.51264 0.13346,-0.33073 0.0734,0.1819 0.0734,0.47955 0,0.66145 -0.0734,0.18191 -0.13346,0.0331 -0.13346,-0.33072 z m -136.56677,-0.36448 c 0,-0.0549 0.20836,-0.2633 0.46302,-0.46302 0.41964,-0.32911 0.429,-0.31975 0.0999,0.0999 -0.34564,0.44073 -0.56291,0.58089 -0.56291,0.36313 z m 184.12997,-0.62771 -0.64143,-0.72761 0.7276,0.64144 c 0.68006,0.59951 0.84894,0.81377 0.64144,0.81377 -0.0474,0 -0.37482,-0.32742 -0.72761,-0.7276 z m -22.44867,-0.74966 c 0.0127,-0.30822 0.0754,-0.37091 0.15985,-0.15985 0.0764,0.191 0.067,0.4192 -0.0209,0.50712 -0.0879,0.0879 -0.15046,-0.0683 -0.13897,-0.34727 z M 552.3839,444.7108 c 0.0127,-0.30822 0.0754,-0.37091 0.15985,-0.15985 0.0764,0.191 0.067,0.4192 -0.0209,0.50712 -0.0879,0.0879 -0.15045,-0.0684 -0.13896,-0.34727 z m -205.0312,-0.37482 c 0,-0.3638 0.06,-0.51263 0.13345,-0.33073 0.0734,0.1819 0.0734,0.47956 0,0.66146 -0.0734,0.1819 -0.13345,0.0331 -0.13345,-0.33073 z m 222.00502,-0.26458 c 0,-0.50933 0.0544,-0.71769 0.121,-0.46303 0.0666,0.25467 0.0666,0.67138 0,0.92605 -0.0666,0.25466 -0.121,0.0463 -0.121,-0.46302 z m -242.66341,-0.15435 c 0.0127,-0.30822 0.0754,-0.37091 0.15986,-0.15985 0.0764,0.191 0.067,0.4192 -0.0209,0.50712 -0.0879,0.0879 -0.15046,-0.0684 -0.13897,-0.34727 z m 267.25006,-0.6394 c 0,-0.36381 0.06,-0.51263 0.13345,-0.33073 0.0734,0.1819 0.0734,0.47955 0,0.66145 -0.0734,0.18191 -0.13345,0.0331 -0.13345,-0.33072 z m -158.77089,-2.00643 c 0.0127,-0.30822 0.0754,-0.37092 0.15985,-0.15985 0.0764,0.191 0.067,0.4192 -0.0209,0.50712 -0.0879,0.0879 -0.15045,-0.0684 -0.13896,-0.34727 z m 179.3875,0 c 0.0127,-0.30822 0.0754,-0.37092 0.15985,-0.15985 0.0764,0.191 0.067,0.4192 -0.0209,0.50712 -0.0879,0.0879 -0.15045,-0.0684 -0.13896,-0.34727 z m -287.53829,-1.69774 c 0,-0.94589 0.048,-1.33284 0.10672,-0.8599 0.0587,0.47295 0.0587,1.24685 0,1.71979 -0.0587,0.47295 -0.10672,0.086 -0.10672,-0.85989 z m 128.52371,0.37483 c 0.0127,-0.30823 0.0754,-0.37092 0.15985,-0.15986 0.0764,0.191 0.067,0.4192 -0.0209,0.50712 -0.0879,0.0879 -0.15045,-0.0684 -0.13896,-0.34726 z m -107.95,-0.26459 c 0.0127,-0.30822 0.0754,-0.37092 0.15985,-0.15985 0.0764,0.191 0.067,0.4192 -0.0209,0.50712 -0.0879,0.0879 -0.15045,-0.0683 -0.13896,-0.34727 z m 87.84166,0 c 0.0127,-0.30822 0.0754,-0.37092 0.15986,-0.15985 0.0764,0.191 0.067,0.4192 -0.0209,0.50712 -0.0879,0.0879 -0.15046,-0.0683 -0.13897,-0.34727 z m 117.26521,-1.56545 c 0.002,-0.7276 0.0534,-0.99386 0.11418,-0.59167 0.0608,0.40218 0.0592,0.99749 -0.004,1.32291 -0.0628,0.32542 -0.11256,-0.004 -0.11057,-0.73124 z m -96.8616,-0.52917 c 0.005,-0.43656 0.0647,-0.58312 0.13177,-0.32569 0.0671,0.25743 0.0627,0.61462 -0.01,0.79375 -0.0725,0.17913 -0.12736,-0.0315 -0.12197,-0.46806 z m -20.08424,-1.5875 c 0.002,-0.7276 0.0534,-0.99385 0.11419,-0.59167 0.0608,0.40218 0.0592,0.9975 -0.004,1.32292 -0.0628,0.32542 -0.11256,-0.004 -0.11058,-0.73125 z m 158.20654,0.1323 c 0,-0.50933 0.0544,-0.71769 0.121,-0.46303 0.0666,0.25467 0.0666,0.67138 0,0.92605 -0.0666,0.25466 -0.121,0.0463 -0.121,-0.46302 z m -267.26966,-0.15434 c 0.0127,-0.30823 0.0754,-0.37092 0.15986,-0.15986 0.0764,0.191 0.067,0.4192 -0.0209,0.50712 -0.0879,0.0879 -0.15046,-0.0684 -0.13897,-0.34726 z m 287.86667,-0.26459 c 0.0127,-0.30822 0.0754,-0.37092 0.15985,-0.15985 0.0764,0.191 0.067,0.4192 -0.0209,0.50712 -0.0879,0.0879 -0.15045,-0.0683 -0.13896,-0.34727 z m -44.95828,-0.37482 c 0,-0.36381 0.06,-0.51263 0.13345,-0.33073 0.0734,0.1819 0.0734,0.47955 0,0.66145 -0.0734,0.18191 -0.13345,0.0331 -0.13345,-0.33072 z m -222.25,-0.26459 c 0,-0.3638 0.06,-0.51263 0.13345,-0.33073 0.0734,0.1819 0.0734,0.47956 0,0.66146 -0.0734,0.1819 -0.13345,0.0331 -0.13345,-0.33073 z m 246.83536,-1.47725 c 0.0127,-0.30823 0.0754,-0.37092 0.15985,-0.15986 0.0764,0.191 0.067,0.4192 -0.0209,0.50712 -0.0879,0.0879 -0.15046,-0.0683 -0.13897,-0.34726 z m -247.12083,-0.52917 c 0.0127,-0.30823 0.0754,-0.37092 0.15985,-0.15985 0.0764,0.19099 0.067,0.4192 -0.0209,0.50711 -0.0879,0.0879 -0.15045,-0.0684 -0.13896,-0.34726 z m 88.37083,-0.52917 c 0.0127,-0.30822 0.0754,-0.37092 0.15986,-0.15985 0.0764,0.191 0.067,0.4192 -0.0209,0.50712 -0.0879,0.0879 -0.15046,-0.0684 -0.13897,-0.34727 z m 20.40361,-0.50712 c 0.005,-0.43656 0.0647,-0.58312 0.13177,-0.32569 0.0671,0.25743 0.0627,0.61462 -0.01,0.79375 -0.0725,0.17913 -0.12736,-0.0315 -0.12197,-0.46806 z m 113.47556,-0.28663 c 0.0127,-0.30822 0.0754,-0.37092 0.15985,-0.15985 0.0764,0.191 0.067,0.4192 -0.0209,0.50712 -0.0879,0.0879 -0.15045,-0.0683 -0.13896,-0.34727 z m 113.43483,-1.36701 c -0.045,-0.10914 -0.015,-2.04391 0.0665,-4.29948 l 0.14827,-4.10104 0.0264,4.29948 c 0.0243,3.95854 -0.0162,4.64713 -0.24118,4.10104 z M 455.5464,429.62956 c 0.0127,-0.30823 0.0754,-0.37092 0.15985,-0.15986 0.0764,0.191 0.067,0.4192 -0.0209,0.50712 -0.0879,0.0879 -0.15045,-0.0683 -0.13896,-0.34726 z m 161.63952,-0.21014 c 0,-0.0549 0.20836,-0.2633 0.46302,-0.46302 0.41965,-0.32911 0.42901,-0.31975 0.0999,0.0999 -0.34564,0.44073 -0.56292,0.58089 -0.56292,0.36313 z m -67.53489,-1.14984 c 0.47294,-0.0587 1.24685,-0.0587 1.71979,0 0.47294,0.0587 0.086,0.10671 -0.8599,0.10671 -0.94588,0 -1.33283,-0.048 -0.85989,-0.10671 z m -36.49304,-0.27154 c 5.28584,-0.0401 13.85834,-0.0401 19.05,5e-5 5.19167,0.0401 0.86689,0.0729 -9.61061,0.0729 -10.4775,-3e-5 -14.72522,-0.0328 -9.43939,-0.0729 z m 161.65749,-1.56988 c 0.191,-0.0764 0.4192,-0.067 0.50712,0.0209 0.0879,0.0879 -0.0684,0.15046 -0.34727,0.13897 -0.30822,-0.0127 -0.37092,-0.0754 -0.15985,-0.15985 z m -242.73074,-0.94374 -0.50402,-0.59532 0.59531,0.50403 c 0.55945,0.47366 0.71576,0.6866 0.50403,0.6866 -0.0502,0 -0.3181,-0.26789 -0.59532,-0.59531 z m 236.62879,-0.10909 c 0.1819,-0.0734 0.47955,-0.0734 0.66146,0 0.1819,0.0734 0.0331,0.13346 -0.33073,0.13346 -0.36381,0 -0.51263,-0.0601 -0.33073,-0.13346 z m -2.38125,-0.26458 c 0.1819,-0.0734 0.47955,-0.0734 0.66146,0 0.1819,0.0734 0.0331,0.13345 -0.33073,0.13345 -0.36381,0 -0.51263,-0.06 -0.33073,-0.13345 z M 315.2302,424.84617 c 0.1819,-0.0734 0.47955,-0.0734 0.66145,0 0.18191,0.0734 0.0331,0.13345 -0.33072,0.13345 -0.36381,0 -0.51264,-0.06 -0.33073,-0.13345 z m 348.32899,-0.008 c 0.25743,-0.0671 0.61462,-0.0627 0.79375,0.01 0.17913,0.0725 -0.0315,0.12736 -0.46806,0.12197 -0.43656,-0.005 -0.58312,-0.0647 -0.32569,-0.13178 z m -381.39717,-0.27298 c 0.47555,-0.0589 1.18992,-0.0577 1.5875,0.003 0.39757,0.0604 0.008,0.10855 -0.86464,0.10707 -0.87312,-10e-4 -1.19841,-0.0509 -0.72286,-0.10977 z m 30.0305,0.008 c 0.25743,-0.0671 0.61462,-0.0627 0.79375,0.01 0.17913,0.0725 -0.0315,0.12736 -0.46805,0.12197 -0.43657,-0.005 -0.58313,-0.0647 -0.3257,-0.13177 z m 316.58546,0.003 c 0.191,-0.0764 0.4192,-0.067 0.50712,0.0209 0.0879,0.0879 -0.0684,0.15045 -0.34727,0.13896 -0.30822,-0.0127 -0.37092,-0.0754 -0.15985,-0.15985 z m 31.07201,-0.002 c 0.25466,-0.0666 0.67138,-0.0666 0.92604,0 0.25466,0.0666 0.0463,0.121 -0.46302,0.121 -0.50933,0 -0.71769,-0.0544 -0.46302,-0.121 z m -361.95,-0.27999 c 2.00091,-0.045 5.27513,-0.045 7.27604,0 2.00091,0.0449 0.3638,0.0817 -3.63802,0.0817 -4.00182,0 -5.63893,-0.0368 -3.63802,-0.0817 z m 333.11545,0.0144 c 0.25743,-0.0671 0.61462,-0.0627 0.79375,0.01 0.17913,0.0725 -0.0315,0.12736 -0.46806,0.12197 -0.43656,-0.005 -0.58312,-0.0647 -0.32569,-0.13177 z m 24.34166,0 c 0.25744,-0.0671 0.61462,-0.0627 0.79375,0.01 0.17914,0.0725 -0.0315,0.12736 -0.46805,0.12197 -0.43656,-0.005 -0.58313,-0.0647 -0.3257,-0.13177 z m -16.1281,-0.27925 c 2.30103,-0.0441 5.99197,-0.044 8.20208,2e-4 2.21011,0.0442 0.32745,0.0803 -4.1837,0.0802 -4.51114,-1.1e-4 -6.31942,-0.0363 -4.01838,-0.0804 z m -382.35399,-0.99261 c 0.005,-0.43656 0.0647,-0.58312 0.13177,-0.32569 0.0671,0.25743 0.0627,0.61462 -0.01,0.79375 -0.0725,0.17913 -0.12737,-0.0315 -0.12197,-0.46806 z m 168.70297,-0.31303 c 0.191,-0.0764 0.4192,-0.067 0.50712,0.0209 0.0879,0.0879 -0.0684,0.15045 -0.34727,0.13896 -0.30822,-0.0127 -0.37091,-0.0754 -0.15985,-0.15985 z m -35.18958,-0.26458 c 0.19099,-0.0764 0.4192,-0.067 0.50712,0.0209 0.0879,0.0879 -0.0683,0.15046 -0.34727,0.13897 -0.30822,-0.0127 -0.37092,-0.0754 -0.15985,-0.15985 z m 30.27825,-0.012 c 0.54571,-0.0571 1.43868,-0.0571 1.98438,0 0.5457,0.0571 0.0992,0.10378 -0.99219,0.10378 -1.09141,0 -1.53789,-0.0467 -0.99219,-0.10378 z m -21.16666,-0.26988 c 2.58299,-0.0433 6.80971,-0.0433 9.39271,0 2.58299,0.0433 0.46963,0.0788 -4.69636,0.0788 -5.16599,0 -7.27935,-0.0354 -4.69635,-0.0788 z m 200.22343,-0.72801 c 0.34178,-0.3638 0.68094,-0.66146 0.7537,-0.66146 0.0728,0 -0.14734,0.29766 -0.48911,0.66146 -0.34178,0.3638 -0.68094,0.66146 -0.7537,0.66146 -0.0728,0 0.14734,-0.29766 0.48911,-0.66146 z m -258.26708,-0.59531 c -0.3291,-0.41964 -0.31975,-0.429 0.0999,-0.0999 0.44073,0.34565 0.58088,0.56292 0.36312,0.56292 -0.0549,0 -0.2633,-0.20836 -0.46302,-0.46302 z m 259.72229,-0.8599 c 0.26339,-0.29104 0.53842,-0.52916 0.61118,-0.52916 0.0728,0 -0.0832,0.23812 -0.34659,0.52916 -0.26339,0.29104 -0.53843,0.52917 -0.61119,0.52917 -0.0728,0 0.0832,-0.23813 0.3466,-0.52917 z m -260.9043,-0.33073 -0.50403,-0.59531 0.59531,0.50403 c 0.55945,0.47366 0.71576,0.6866 0.50403,0.6866 -0.0502,0 -0.3181,-0.26789 -0.59531,-0.59532 z m 135.3804,-0.35277 c 0.0127,-0.30823 0.0754,-0.37092 0.15985,-0.15986 0.0764,0.191 0.067,0.4192 -0.0209,0.50712 -0.0879,0.0879 -0.15045,-0.0684 -0.13896,-0.34726 z m -26.10749,-1.23473 -0.50402,-0.59531 0.59531,0.50403 c 0.55945,0.47366 0.71576,0.6866 0.50403,0.6866 -0.0502,0 -0.3181,-0.26789 -0.59532,-0.59532 z m 113.25016,-0.52916 -0.7771,-0.8599 0.85989,0.77711 c 0.47295,0.4274 0.8599,0.81436 0.8599,0.85989 0,0.20441 -0.21831,0.0244 -0.94269,-0.7771 z m -303.59272,-1.65365 c 0.34177,-0.3638 0.68093,-0.66146 0.75369,-0.66146 0.0728,0 -0.14734,0.29766 -0.48911,0.66146 -0.34178,0.3638 -0.68094,0.66146 -0.7537,0.66146 -0.0728,0 0.14734,-0.29766 0.48912,-0.66146 z m 416.66913,-0.0484 c 0.191,-0.0764 0.4192,-0.067 0.50712,0.0209 0.0879,0.0879 -0.0684,0.15045 -0.34726,0.13897 -0.30823,-0.0127 -0.37092,-0.0754 -0.15986,-0.15986 z m -198.65247,-0.6958 c 0,-0.0455 0.38695,-0.43248 0.8599,-0.85989 l 0.85989,-0.77711 -0.7771,0.8599 c -0.72437,0.80154 -0.94269,0.98151 -0.94269,0.7771 z m 191.24414,-1.15628 c 0.191,-0.0764 0.4192,-0.067 0.50712,0.0209 0.0879,0.0879 -0.0684,0.15045 -0.34727,0.13896 -0.30822,-0.0127 -0.37092,-0.0754 -0.15985,-0.15985 z m -1.85208,-0.26458 c 0.19099,-0.0764 0.4192,-0.067 0.50712,0.0209 0.0879,0.0879 -0.0684,0.15046 -0.34727,0.13897 -0.30822,-0.0127 -0.37092,-0.0754 -0.15985,-0.15985 z m -342.65195,-0.25907 c 0.1819,-0.0734 0.47955,-0.0734 0.66145,0 0.18191,0.0734 0.0331,0.13345 -0.33073,0.13345 -0.3638,0 -0.51263,-0.0601 -0.33072,-0.13345 z m 112.99362,-0.006 c 0.19099,-0.0764 0.41919,-0.067 0.50711,0.0209 0.0879,0.0879 -0.0684,0.15045 -0.34726,0.13897 -0.30823,-0.0127 -0.37092,-0.0754 -0.15985,-0.15986 z m 181.23958,0 c 0.19099,-0.0764 0.4192,-0.067 0.50712,0.0209 0.0879,0.0879 -0.0684,0.15045 -0.34727,0.13897 -0.30822,-0.0127 -0.37092,-0.0754 -0.15985,-0.15986 z m 46.0375,0 c 0.19099,-0.0764 0.4192,-0.067 0.50712,0.0209 0.0879,0.0879 -0.0684,0.15045 -0.34727,0.13897 -0.30822,-0.0127 -0.37092,-0.0754 -0.15985,-0.15986 z M 266.28228,413.2045 c 0.1819,-0.0734 0.47956,-0.0734 0.66146,0 0.1819,0.0734 0.0331,0.13345 -0.33073,0.13345 -0.3638,0 -0.51263,-0.06 -0.33073,-0.13345 z m 52.3875,-0.0115 c 0.32742,-0.0631 0.8632,-0.0631 1.19062,0 0.32743,0.0631 0.0595,0.11467 -0.59531,0.11467 -0.65484,0 -0.92273,-0.0516 -0.59531,-0.11467 z m 55.82708,0.0115 c 0.1819,-0.0734 0.47956,-0.0734 0.66146,0 0.1819,0.0734 0.0331,0.13345 -0.33073,0.13345 -0.3638,0 -0.51263,-0.06 -0.33073,-0.13345 z m 58.07604,-0.0143 c 0.40019,-0.0606 1.05503,-0.0606 1.45521,0 0.40018,0.0606 0.0728,0.11022 -0.7276,0.11022 -0.80037,0 -1.12779,-0.0496 -0.72761,-0.11022 z m 187.45729,0.0143 c 0.18191,-0.0734 0.47956,-0.0734 0.66146,0 0.1819,0.0734 0.0331,0.13345 -0.33073,0.13345 -0.3638,0 -0.51263,-0.06 -0.33073,-0.13345 z m 41.53959,0 c 0.1819,-0.0734 0.47955,-0.0734 0.66146,0 0.1819,0.0734 0.0331,0.13345 -0.33073,0.13345 -0.36381,0 -0.51263,-0.06 -0.33073,-0.13345 z m -377.03125,-0.28767 c 4.98409,-0.0403 13.13987,-0.0403 18.12396,0 4.98409,0.0403 0.9062,0.0732 -9.06198,0.0732 -9.96818,0 -14.04607,-0.033 -9.06198,-0.0732 z m 106.23021,0.004 c 0.69122,-0.0545 1.82231,-0.0545 2.51354,0 0.69122,0.0545 0.12568,0.0991 -1.25677,0.0991 -1.38245,0 -1.948,-0.0446 -1.25677,-0.0991 z m 28.44271,-0.001 c 0.9095,-0.0517 2.39778,-0.0517 3.30729,0 0.9095,0.0517 0.16536,0.0939 -1.65365,0.0939 -1.81901,0 -2.56315,-0.0423 -1.65364,-0.0939 z m 203.86649,0.0125 c 0.25743,-0.0671 0.61462,-0.0627 0.79375,0.01 0.17913,0.0725 -0.0315,0.12736 -0.46806,0.12197 -0.43656,-0.005 -0.58312,-0.0647 -0.32569,-0.13178 z m 35.846,0.008 c 0.18191,-0.0734 0.47956,-0.0734 0.66146,0 0.1819,0.0734 0.0331,0.13345 -0.33073,0.13345 -0.3638,0 -0.51263,-0.06 -0.33073,-0.13345 z m -32.01149,-0.27649 c 0.32911,-0.0633 0.80536,-0.0609 1.05833,0.005 0.25296,0.0662 -0.0163,0.11801 -0.5984,0.11507 -0.58208,-0.003 -0.78905,-0.0571 -0.45993,-0.12041 z m 27.24899,4.1e-4 c 0.32743,-0.0631 0.86321,-0.0631 1.19063,0 0.32742,0.0631 0.0595,0.11466 -0.59531,0.11466 -0.65485,0 -0.92274,-0.0516 -0.59532,-0.11466 z m -20.6375,-0.27292 c 0.76399,-0.0534 2.01415,-0.0534 2.77813,0 0.76398,0.0534 0.13891,0.0972 -1.38906,0.0972 -1.52797,0 -2.15305,-0.0437 -1.38907,-0.0972 z m 9.26042,-10e-4 c 1.05503,-0.0502 2.78143,-0.0502 3.83646,0 1.05503,0.0502 0.19182,0.0913 -1.91823,0.0913 -2.11005,0 -2.97326,-0.0411 -1.91823,-0.0913 z m -92.05846,-0.24887 c 0.19099,-0.0764 0.4192,-0.067 0.50712,0.0209 0.0879,0.0879 -0.0684,0.15046 -0.34727,0.13897 -0.30822,-0.0127 -0.37092,-0.0754 -0.15985,-0.15985 z m -66.675,-0.26459 c 0.19099,-0.0764 0.4192,-0.067 0.50712,0.0209 0.0879,0.0879 -0.0684,0.15045 -0.34727,0.13897 -0.30822,-0.0127 -0.37092,-0.0754 -0.15985,-0.15986 z m 64.14996,-0.003 c 0.25743,-0.0671 0.61461,-0.0627 0.79375,0.01 0.17913,0.0725 -0.0315,0.12737 -0.46806,0.12197 -0.43656,-0.005 -0.58313,-0.0647 -0.32569,-0.13177 z m -60.59099,-0.27109 c 0.40219,-0.0608 0.9975,-0.0592 1.32292,0.004 0.32542,0.0628 -0.004,0.11256 -0.73124,0.11058 -0.7276,-0.002 -0.99386,-0.0534 -0.59168,-0.11419 z m 56.09167,0 c 0.40218,-0.0608 0.9975,-0.0592 1.32292,0.004 0.32542,0.0628 -0.004,0.11256 -0.73124,0.11058 -0.72761,-0.002 -0.99386,-0.0534 -0.59168,-0.11419 z m -26.97241,-0.27302 c 4.04851,-0.0411 10.59695,-0.0411 14.55209,7e-5 3.95514,0.0411 0.64272,0.0748 -7.36092,0.0747 -8.00365,-4e-5 -11.23967,-0.0337 -7.19117,-0.0748 z M 467.69634,189.80683 v -23.54792 h 22.88646 22.88646 v 23.54792 23.54791 H 490.5828 467.69634 Z m -68.52708,-0.26459 v -23.54791 h 22.75416 22.75417 v 23.54791 23.54792 h -22.75417 -22.75416 z m 69.85,-66.93958 V 99.054747 h 22.75416 22.75417 v 23.547913 23.54792 h -22.75417 -22.75416 z m -68.79167,-0.26458 V 98.790163 h 22.88646 22.88646 v 23.547917 23.54791 h -22.88646 -22.88646 z"
         id="path2" /><path
         style="fill:#1f2022"
         d="m 475.69529,461.07087 0.0708,-42.53177 0.58791,-1.43646 c 0.71467,-1.7462 2.17924,-3.306 3.77772,-4.02337 3.02916,-1.35943 2.89178,-1.3532 32.54375,-1.47761 34.28033,-0.14384 38.20821,0.0387 43.66087,2.02864 6.11392,2.2313 10.3046,7.14553 12.3577,14.49133 0.71044,2.54189 0.72327,2.72116 0.7157,9.99664 -0.0114,10.96237 -0.64275,14.49506 -3.64006,20.36796 -1.45326,2.84748 -2.94226,4.74769 -3.54043,4.51815 -0.20282,-0.0778 -0.30502,-0.0384 -0.22712,0.0877 0.0779,0.12606 -0.66005,1.00958 -1.6399,1.96338 -4.87961,4.74987 -6.90243,5.66763 -16.20135,7.3506 -2.54661,0.4609 -4.66776,0.87006 -4.71366,0.90926 -0.0459,0.0392 0.54474,0.64886 1.31252,1.35482 0.76778,0.70596 3.00799,2.77346 4.97824,4.59444 1.97026,1.82098 4.35619,4.01647 5.30207,4.87888 0.94589,0.8624 1.6801,1.69422 1.6316,1.8485 -0.0485,0.15427 -0.004,0.19586 0.0999,0.0924 0.10344,-0.10344 1.15745,0.67046 2.34225,1.71979 1.1848,1.04932 2.68767,2.35124 3.33971,2.89315 5.12709,4.26111 12.92422,10.75372 13.35636,11.12173 0.29104,0.24785 0.76729,0.62771 1.05834,0.84412 0.47683,0.35457 0.1475,0.39432 -3.33021,0.4019 -2.12266,0.005 -7.95672,0.0807 -12.96458,0.16902 l -9.10521,0.16061 -1.45521,-1.36302 c -2.54974,-2.38821 -8.94135,-8.00714 -15.11299,-13.28598 -3.29167,-2.8155 -8.51811,-7.32174 -11.61431,-10.01388 l -5.62945,-4.89479 -6.24506,-0.13229 -6.24507,-0.13229 -0.081,-8.43639 -0.0809,-8.43639 4.18199,0.16552 c 10.25225,0.40579 25.73785,0.50581 29.47938,0.1904 10.41015,-0.87757 14.56432,-2.80891 16.77016,-7.79671 0.93238,-2.10828 1.15174,-3.95565 1.35422,-11.40518 0.15527,-5.71233 0.12059,-6.81787 -0.25424,-8.10486 l -0.43403,-1.49028 -10.78341,-0.19961 c -5.93088,-0.10979 -19.11779,-0.13446 -29.30425,-0.0548 l -18.52083,0.1448 -0.0882,4.19093 c -0.0801,3.80535 0.21933,31.39774 0.65197,60.08415 l 0.16859,11.17864 h -9.30058 -9.30058 z m 147.29341,40.67337 c -6.48182,-0.1931 -12.31572,-0.67322 -16.25382,-1.33766 -4.44577,-0.75009 -9.50912,-2.78391 -11.17645,-4.4893 -1.57793,-1.61394 -1.76527,-2.32934 -1.85012,-7.06516 -0.0424,-2.36471 -0.0291,-4.29948 0.0294,-4.29948 0.0585,0 1.06765,0.47469 2.24254,1.05487 4.26836,2.10776 9.97353,3.3433 19.07957,4.13196 3.94082,0.3413 7.31691,0.39834 17.4625,0.29502 12.91094,-0.13148 15.42417,-0.30973 19.66104,-1.39444 5.41592,-1.38657 9.14807,-4.78763 10.40053,-9.47787 0.99142,-3.71269 0.66603,-8.6592 -0.75932,-11.54287 -1.38451,-2.80104 -3.65636,-4.11403 -8.46906,-4.89459 -1.93408,-0.31368 -5.26625,-0.39542 -16.1935,-0.39724 -18.56806,-0.003 -24.04338,-0.37634 -29.75578,-2.02841 -3.45597,-0.9995 -5.64941,-2.27685 -8.10912,-4.72236 -3.29944,-3.2804 -4.56164,-6.29147 -5.18306,-12.36456 -0.56041,-5.47679 0.28707,-12.06371 2.0793,-16.16102 1.87329,-4.28262 6.00663,-8.40133 10.26151,-10.22518 6.54812,-2.80685 12.63289,-3.79973 25.81235,-4.2119 16.77164,-0.52451 35.21881,0.61735 40.54035,2.50941 0.62234,0.22127 1.93781,0.57321 2.92327,0.78208 3.03105,0.64245 5.23855,2.0991 6.35889,4.19601 0.51161,0.95757 0.5943,1.6123 0.71202,5.63752 l 0.13318,4.55413 -0.92604,-0.88696 c -1.18763,-1.1375 -2.21969,-1.64839 -4.86855,-2.41002 -7.10774,-2.04371 -21.79212,-3.20619 -37.2002,-2.94493 -13.5941,0.23051 -18.43291,1.29021 -22.05956,4.83104 -2.43436,2.37676 -3.34276,5.02031 -3.3373,9.71198 0.007,6.42901 2.16096,9.31523 7.94659,10.65047 1.71977,0.3969 4.40995,0.48004 21.02215,0.64973 20.43905,0.20877 21.62465,0.28336 27.27184,1.71589 3.75029,0.95134 5.71495,2.01464 8.12019,4.39474 1.67401,1.65651 2.25493,2.46067 3.13646,4.34182 1.74077,3.7147 2.19588,6.38801 2.20649,12.96089 0.009,5.2712 -0.0298,5.70557 -0.74676,8.46667 -1.29622,4.99189 -3.05785,8.1111 -6.24995,11.06642 -4.7189,4.36888 -10.49189,6.63622 -20.31415,7.97839 -6.37928,0.87171 -21.71131,1.28943 -33.94739,0.92491 z m -249.68246,-0.72106 -6.41615,-0.0758 v -40.71326 c 0,-39.83394 0.0113,-40.7499 0.52408,-42.41001 0.55112,-1.78432 1.12532,-2.49132 2.65092,-3.26404 2.34713,-1.18882 2.83213,-1.22486 20.24063,-1.504 17.3249,-0.2778 44.17887,0.0587 47.75729,0.59838 9.45602,1.42619 15.00195,5.75395 16.93986,13.21901 1.22184,4.70668 1.26215,10.87487 0.10201,15.61042 -1.32544,5.41025 -4.92544,9.71002 -9.55076,11.40724 -1.89572,0.69562 -2.29964,1.02665 -1.26017,1.03277 1.52461,0.009 4.4961,0.79884 6.32918,1.68239 6.0119,2.89777 8.65601,8.83746 8.67155,19.47968 0.0147,10.08876 -2.52915,16.14812 -8.43889,20.10079 -4.19525,2.80596 -9.4888,4.19066 -18.21674,4.76519 -3.53402,0.23263 -41.77924,0.27854 -59.33281,0.0712 z m 53.68119,-10.79297 c 6.05298,-1.11602 8.64744,-2.70948 10.55082,-6.48005 1.19701,-2.37127 1.57474,-4.40004 1.57918,-8.48176 0.004,-3.73188 -0.48885,-6.58168 -1.46483,-8.46901 -0.78416,-1.5164 -2.70115,-3.31293 -4.2901,-4.0205 -3.50428,-1.5605 -3.86066,-1.58682 -23.7422,-1.75345 -13.70326,-0.11485 -18.3976,-0.234 -18.82302,-0.47777 -1.71367,-0.98194 -2.33771,-2.82683 -2.55266,-7.54659 l -0.0934,-2.05052 16.29078,-2.2e-4 c 16.95654,-2.3e-4 20.77198,-0.17325 23.68898,-1.07422 3.11074,-0.96081 5.60435,-3.52585 6.7316,-6.92443 1.17319,-3.53709 1.24796,-9.23796 0.16802,-12.81041 -0.56119,-1.85642 -2.33572,-4.43586 -3.69507,-5.37111 -1.51382,-1.04154 -3.99446,-1.84139 -6.74078,-2.17348 -3.52682,-0.42648 -33.51382,-0.4408 -34.70842,-0.0166 -1.10078,0.3909 -2.20408,1.45956 -2.6065,2.52465 -0.19324,0.51146 -0.28142,10.89441 -0.28142,33.13906 v 32.39423 h 18.88848 c 15.88254,0 19.24051,-0.0649 21.10053,-0.40785 z m -170.1593,-27.4364 c 0.003,-20.99311 0.11171,-39.1858 0.24251,-40.4282 0.55896,-5.30948 2.1333,-7.3544 6.64782,-8.63488 1.60197,-0.45437 3.39794,-0.48329 30.01434,-0.48329 30.30082,0 31.55639,0.046 36.35668,1.33059 5.88269,1.57432 10.51602,4.5435 13.15169,8.42804 1.37779,2.03063 3.05882,6.00983 3.62453,8.57967 0.4833,2.19548 0.56319,3.39998 0.55614,8.38461 -0.008,5.34471 -0.0653,6.06411 -0.70599,8.79493 -1.31067,5.58668 -3.34926,9.51878 -6.61147,12.75238 -3.03505,3.00843 -6.24355,4.74369 -11.17664,6.04471 l -2.65119,0.6992 -24.1657,0.0863 -24.1657,0.0862 0.0886,-4.45481 c 0.075,-3.77158 0.16278,-4.56788 0.57221,-5.19198 0.98441,-1.50054 0.80955,-1.48671 18.79921,-1.48671 18.1881,0 19.22659,-0.0737 22.25678,-1.57873 3.48326,-1.7301 5.90743,-5.22585 6.88652,-9.93064 0.53978,-2.59378 0.6256,-8.55753 0.15802,-10.98021 -0.80931,-4.19327 -3.4474,-7.82523 -6.51849,-8.97427 -3.62393,-1.35589 -11.89381,-1.77948 -28.04272,-1.43636 -11.51204,0.24459 -11.94335,0.27231 -13.02686,0.83728 -2.09625,1.09305 -1.91449,-2.4444 -1.98825,38.69723 l -0.0661,36.88966 -10.12031,0.0693 -10.12031,0.0693 z"
         id="path1" /></g></g></svg>
